<svg width="82" height="15" viewBox="0 0 82 15" fill="none" xmlns="http://www.w3.org/2000/svg">
<path d="M1 6.5C0.447715 6.5 -4.82823e-08 6.94772 0 7.5C4.82823e-08 8.05228 0.447715 8.5 1 8.5L1 6.5ZM81.7071 8.2071C82.0976 7.81658 82.0976 7.18341 81.7071 6.79289L75.3431 0.428926C74.9526 0.0384013 74.3195 0.0384014 73.9289 0.428926C73.5384 0.81945 73.5384 1.45262 73.9289 1.84314L79.5858 7.49999L73.9289 13.1568C73.5384 13.5474 73.5384 14.1805 73.9289 14.5711C74.3195 14.9616 74.9526 14.9616 75.3431 14.5711L81.7071 8.2071ZM1 8.5L81 8.49999L81 6.49999L1 6.5L1 8.5Z" fill="#C79B01"/>
</svg>
