<svg width="110" height="15" viewBox="0 0 110 15" fill="none" xmlns="http://www.w3.org/2000/svg">
<path d="M1 6.5C0.447715 6.5 0 6.94772 0 7.5C0 8.05228 0.447715 8.5 1 8.5V6.5ZM109.707 8.20711C110.098 7.81658 110.098 7.18342 109.707 6.79289L103.343 0.428932C102.953 0.0384078 102.319 0.0384078 101.929 0.428932C101.538 0.819457 101.538 1.45262 101.929 1.84315L107.586 7.5L101.929 13.1569C101.538 13.5474 101.538 14.1805 101.929 14.5711C102.319 14.9616 102.953 14.9616 103.343 14.5711L109.707 8.20711ZM1 8.5H109V6.5H1V8.5Z" fill="#C79B01"/>
</svg>
