<svg width="157" height="48" viewBox="0 0 157 48" fill="none" xmlns="http://www.w3.org/2000/svg">
<line x1="9.16504" y1="24.354" x2="147.165" y2="26.354" stroke="#4F341B" stroke-width="2" stroke-linecap="round" stroke-linejoin="round"/>
<path d="M6.66504 24.354C6.66504 23.5256 7.33661 22.854 8.16504 22.854C8.99347 22.854 9.66504 23.5256 9.66504 24.354C9.66504 25.1824 8.99347 25.854 8.16504 25.854C7.33661 25.854 6.66504 25.1824 6.66504 24.354Z" stroke="#4F341B" stroke-width="3" stroke-linecap="round" stroke-linejoin="round"/>
<path fill-rule="evenodd" clip-rule="evenodd" d="M146.872 19.6469C146.482 19.2564 145.848 19.2564 145.458 19.6469C145.067 20.0374 145.067 20.6706 145.458 21.0611L147.751 23.354H147.165C146.613 23.354 146.165 23.8017 146.165 24.354C146.165 24.9063 146.613 25.354 147.165 25.354H147.751L145.458 27.6469C145.067 28.0374 145.067 28.6706 145.458 29.0611C145.848 29.4516 146.482 29.4516 146.872 29.0611L150.519 25.4147C151.104 24.8289 151.104 23.8791 150.519 23.2933L146.872 19.6469Z" fill="#4F341B"/>
</svg>
