<svg width="91" height="89" viewBox="0 0 91 89" fill="none" xmlns="http://www.w3.org/2000/svg">
<path d="M8.35585 80.5829L7.93733 16.5843C7.90843 12.1661 11.4667 8.56105 15.8848 8.53216L83.8834 8.08746" stroke="#4F341B" stroke-width="2" stroke-linecap="round" stroke-linejoin="round"/>
<path fill-rule="evenodd" clip-rule="evenodd" d="M81.5598 3.39549C81.1667 3.00753 80.5336 3.01167 80.1456 3.40474C79.7577 3.79781 79.7618 4.43096 80.1549 4.81892L82.4627 7.09677L81.8769 7.1006C81.3247 7.10422 80.8799 7.55485 80.8835 8.10712C80.8871 8.6594 81.3378 9.10417 81.89 9.10056L82.4758 9.09673L80.1979 11.4046C79.81 11.7976 79.8141 12.4308 80.2072 12.8188C80.6003 13.2067 81.2334 13.2026 81.6214 12.8095L85.2439 9.13929C85.8258 8.54969 85.8196 7.59996 85.23 7.01802L81.5598 3.39549Z" fill="#4F341B"/>
<path d="M8.36567 82.083C7.53726 82.0884 6.86131 81.4213 6.8559 80.5928C6.85048 79.7644 7.51765 79.0885 8.34606 79.0831C9.17446 79.0776 9.85041 79.7448 9.85583 80.5732C9.86125 81.4016 9.19408 82.0776 8.36567 82.083Z" stroke="#4F341B" stroke-width="3" stroke-linecap="round" stroke-linejoin="round"/>
</svg>
