<svg width="157" height="48" viewBox="0 0 157 48" fill="none" xmlns="http://www.w3.org/2000/svg">
<line x1="9.16504" y1="24.0596" x2="147.165" y2="26.0596" stroke="#4F341B" stroke-width="2" stroke-linecap="round" stroke-linejoin="round"/>
<path d="M6.66504 24.0596C6.66504 23.2311 7.33661 22.5596 8.16504 22.5596C8.99347 22.5596 9.66504 23.2311 9.66504 24.0596C9.66504 24.888 8.99347 25.5596 8.16504 25.5596C7.33661 25.5596 6.66504 24.888 6.66504 24.0596Z" stroke="#4F341B" stroke-width="3" stroke-linecap="round" stroke-linejoin="round"/>
<path fill-rule="evenodd" clip-rule="evenodd" d="M146.872 19.3525C146.482 18.9619 145.848 18.9619 145.458 19.3525C145.067 19.743 145.067 20.3762 145.458 20.7667L147.751 23.0596H147.165C146.613 23.0596 146.165 23.5073 146.165 24.0596C146.165 24.6119 146.613 25.0596 147.165 25.0596H147.751L145.458 27.3525C145.067 27.743 145.067 28.3762 145.458 28.7667C145.848 29.1572 146.482 29.1572 146.872 28.7667L150.519 25.1202C151.104 24.5344 151.104 23.5847 150.519 22.9989L146.872 19.3525Z" fill="#4F341B"/>
</svg>
