<svg width="105" height="94" viewBox="0 0 105 94" fill="none" xmlns="http://www.w3.org/2000/svg">
<path d="M8.8496 8.375L8.84961 77.375C8.84961 81.7933 12.4313 85.375 16.8496 85.375L97.8496 85.375" stroke="#4F341B" stroke-width="2" stroke-linecap="round" stroke-linejoin="round"/>
<path fill-rule="evenodd" clip-rule="evenodd" d="M95.5567 90.0821C95.1662 90.4726 94.533 90.4726 94.1425 90.0821C93.752 89.6916 93.752 89.0584 94.1425 88.6679L96.4354 86.375L95.8496 86.375C95.2973 86.375 94.8496 85.9273 94.8496 85.375C94.8496 84.8227 95.2973 84.375 95.8496 84.375L96.4354 84.375L94.1425 82.0821C93.752 81.6916 93.752 81.0584 94.1425 80.6679C94.533 80.2774 95.1662 80.2774 95.5567 80.6679L99.2032 84.3143C99.7889 84.9001 99.789 85.8499 99.2032 86.4357L95.5567 90.0821Z" fill="#4F341B"/>
<path d="M8.84961 6.875C8.02118 6.875 7.34961 7.54657 7.34961 8.375C7.34961 9.20343 8.02118 9.875 8.84961 9.875C9.67804 9.875 10.3496 9.20343 10.3496 8.375C10.3496 7.54657 9.67804 6.875 8.84961 6.875Z" stroke="#4F341B" stroke-width="3" stroke-linecap="round" stroke-linejoin="round"/>
</svg>
