<svg width="86" height="34" viewBox="0 0 86 34" fill="none" xmlns="http://www.w3.org/2000/svg">
<line x1="9.23975" y1="16.8433" x2="76.2397" y2="18.8433" stroke="#4F341B" stroke-width="2" stroke-linecap="round" stroke-linejoin="round"/>
<path d="M6.73975 16.8433C6.73975 16.0148 7.41132 15.3433 8.23975 15.3433C9.06817 15.3433 9.73975 16.0148 9.73975 16.8433C9.73975 17.6717 9.06817 18.3433 8.23975 18.3433C7.41132 18.3433 6.73975 17.6717 6.73975 16.8433Z" stroke="#4F341B" stroke-width="3" stroke-linecap="round" stroke-linejoin="round"/>
<path fill-rule="evenodd" clip-rule="evenodd" d="M75.9469 12.1362C75.5563 11.7456 74.9232 11.7456 74.5326 12.1362C74.1421 12.5267 74.1421 13.1598 74.5326 13.5504L76.8255 15.8433H76.2397C75.6875 15.8433 75.2397 16.291 75.2397 16.8433C75.2397 17.3955 75.6875 17.8433 76.2397 17.8433H76.8255L74.5326 20.1362C74.1421 20.5267 74.1421 21.1598 74.5326 21.5504C74.9232 21.9409 75.5563 21.9409 75.9469 21.5504L79.5933 17.9039C80.1791 17.3181 80.1791 16.3684 79.5933 15.7826L75.9469 12.1362Z" fill="#4F341B"/>
</svg>
