<svg width="48" height="303" viewBox="0 0 48 303" fill="none" xmlns="http://www.w3.org/2000/svg">
<line x1="23.8496" y1="9.375" x2="21.8496" y2="293.375" stroke="#4F341B" stroke-width="2" stroke-linecap="round" stroke-linejoin="round"/>
<path d="M23.8496 6.875C24.678 6.875 25.3496 7.54657 25.3496 8.375C25.3496 9.20343 24.678 9.875 23.8496 9.875C23.0212 9.875 22.3496 9.20343 22.3496 8.375C22.3496 7.54657 23.0212 6.875 23.8496 6.875Z" stroke="#4F341B" stroke-width="3" stroke-linecap="round" stroke-linejoin="round"/>
<path fill-rule="evenodd" clip-rule="evenodd" d="M28.5567 293.082C28.9472 292.692 28.9472 292.058 28.5567 291.668C28.1662 291.277 27.533 291.277 27.1425 291.668L24.8496 293.961L24.8496 293.375C24.8496 292.823 24.4019 292.375 23.8496 292.375C23.2973 292.375 22.8496 292.823 22.8496 293.375L22.8496 293.961L20.5567 291.668C20.1662 291.277 19.533 291.277 19.1425 291.668C18.752 292.058 18.752 292.692 19.1425 293.082L22.7889 296.729C23.3747 297.314 24.3245 297.314 24.9103 296.729L28.5567 293.082Z" fill="#4F341B"/>
</svg>
