<svg width="20" height="20" viewBox="0 0 20 20" fill="none" xmlns="http://www.w3.org/2000/svg">
<path d="M9.83779 7.14C11.0864 7.2 11.4083 8.29 11.4278 8.8H13.1739C13.0959 6.82 11.7205 5.61 9.80853 5.61C7.65271 5.61 6.05291 7 6.05291 10.14C6.05291 12.08 6.96011 14.38 9.79877 14.38C11.9643 14.38 13.1252 12.73 13.1544 11.43H11.4083C11.3791 12.02 10.9694 12.81 9.81828 12.87C8.5404 12.83 8.00388 11.81 8.00388 10.14C8.00388 7.25 9.2525 7.16 9.83779 7.14ZM9.95485 0C4.57018 0 0.200012 4.48 0.200012 10C0.200012 15.52 4.57018 20 9.95485 20C15.3395 20 19.7097 15.52 19.7097 10C19.7097 4.48 15.3395 0 9.95485 0ZM9.95485 18C5.65297 18 2.15098 14.41 2.15098 10C2.15098 5.59 5.65297 2 9.95485 2C14.2567 2 17.7587 5.59 17.7587 10C17.7587 14.41 14.2567 18 9.95485 18Z" fill="black"/>
</svg>
