<svg width="126" height="114" viewBox="0 0 126 114" fill="none" xmlns="http://www.w3.org/2000/svg">
<g clip-path="url(#clip0_1_172)">
<path d="M57.0153 67.1739C62.1324 67.1739 66.2806 63.0172 66.2806 57.8897C66.2806 52.7622 62.1324 48.6055 57.0153 48.6055C51.8982 48.6055 47.75 52.7622 47.75 57.8897C47.75 63.0172 51.8982 67.1739 57.0153 67.1739Z" fill="#0B0B0B"/>
<path d="M93.2959 14.3678C91.9988 15.2088 90.9905 15.8587 90.0585 16.4595C64.2792 -2.8681 35.3441 4.06777 19.5004 20.2278C2.27786 37.7914 -0.643444 64.6228 12.5515 85.2338C26.008 106.254 51.9127 114.85 75.1795 106.03C99.5418 96.7899 111.788 73.8251 107.668 44.7054C108.535 44.132 109.521 43.4711 110.758 42.6465C111.167 43.5967 111.592 44.2521 111.739 44.9621C114.906 60.2319 112.437 74.5569 104.055 87.6804C86.6195 114.987 49.7163 121.868 23.4791 102.836C-2.54011 83.9613 -7.48343 47.0046 12.6278 21.7187C32.3356 -3.05924 69.6857 -6.70194 93.2959 14.3678Z" fill="#0B0B0B"/>
<path d="M82.6262 29.9002C80.9257 28.6878 79.6885 27.7648 78.4132 26.8964C66.1448 18.5516 53.1297 17.2408 39.9076 23.9091C26.6527 30.5938 19.8346 41.997 19.3386 56.7534C18.7445 74.5027 32.4735 90.7446 49.9468 93.6828C70.1016 97.0743 88.6377 84.901 92.8834 64.9509C93.9135 60.1231 93.1559 54.913 93.1886 49.8776C93.1886 49.4189 92.9107 48.9711 92.8344 48.5014C92.6436 47.2781 92.1258 45.6506 93.8862 45.4813C94.5239 45.4212 95.7775 46.9777 95.9846 47.9607C98.4262 59.6479 96.8838 70.7508 89.7169 80.461C79.2361 94.6549 64.9512 100.471 47.7559 96.6429C31.5852 93.0439 21.0663 82.5199 17.2185 66.3107C11.7465 43.264 26.6364 20.7689 50.3774 16.9405C61.5394 15.1437 72.031 17.7761 81.1982 24.7501C83.5091 26.5032 83.4818 26.5415 82.6262 29.9002Z" fill="#0B0B0B"/>
<path d="M93.1951 37.1472C83.5373 43.5588 73.9668 49.9376 64.369 56.2727C62.3961 57.578 60.3741 58.8341 58.2703 59.9045C56.5099 60.8001 54.8312 60.396 53.7848 58.5992C52.8365 56.9663 53.3651 55.4262 54.7386 54.394C56.7551 52.8812 58.9025 51.5378 61.0608 50.2325C70.2225 44.6784 79.3843 39.1242 88.6006 33.6574C90.4264 32.5761 90.8678 30.9814 90.5626 29.2392C89.7669 24.679 92.1868 22.3252 95.7839 20.2554C101.12 17.1861 106.21 13.7073 111.48 10.5233C115.601 8.03295 117.345 8.93407 117.11 13.8274C116.925 17.7159 118.146 19.8458 121.836 21.2876C126.24 23.0024 126.327 25.2798 122.403 27.8247C116.707 31.5166 110.859 34.9845 105.213 38.7419C102.673 40.4295 100.368 40.708 97.7405 39.1843C96.5197 38.4798 95.1571 38.0156 93.1896 37.1527L93.1951 37.1472ZM96.7268 32.7618C98.4763 33.0621 100.809 34.2582 102.188 33.5591C106.739 31.249 110.941 28.2562 116.587 24.7063C111.666 23.98 111.513 20.8506 110.979 17.5957C106.989 20.0861 103.523 22.5327 99.8007 24.4879C96.6123 26.159 95.5441 28.4036 96.7268 32.7618Z" fill="#0B0B0B"/>
<path d="M70.4384 36.7596C68.9995 38.9168 67.3427 38.1359 65.5223 37.3221C60.7643 35.1868 55.8864 34.7171 50.785 36.1698C40.4024 39.1189 33.8022 49.053 35.2029 60.1996C36.5273 70.7617 46.2232 78.4731 56.0008 78.7189C67.9149 79.0138 77.6217 69.6531 78.3629 58.168C78.472 56.4749 77.7089 54.1757 80.6357 53.93C83.6823 62.4223 77.758 74.4044 68.1329 79.3633C57.0364 85.0813 43.182 81.6571 36.1404 71.4553C29.1696 61.3574 30.6357 47.2999 39.3669 38.9332C47.7438 30.9051 62.0614 29.4251 70.4438 36.7651L70.4384 36.7596Z" fill="#0B0B0B"/>
</g>
<defs>
<clipPath id="clip0_1_172">
<rect width="125" height="113" fill="white" transform="translate(0.25 0.605469)"/>
</clipPath>
</defs>
</svg>
