<svg width="110" height="115" viewBox="0 0 110 115" fill="none" xmlns="http://www.w3.org/2000/svg">
<path d="M35.7609 41.1827C35.3689 40.1259 35.1456 39.2943 34.7427 38.554C34.5848 38.259 34.0512 38.0444 33.6646 38.0122C31.2088 37.7869 28.7422 37.5937 26.2811 37.4435C25.2193 37.3792 24.6312 37.127 24.6965 35.861C24.8109 33.6186 24.7292 31.3708 24.7292 28.9782C27.4463 28.7689 30.0273 28.4953 32.6137 28.3988C34.0076 28.3451 34.6229 27.8462 35.3144 26.5748C36.4688 24.445 35.9025 23.1146 34.3343 21.6072C32.8042 20.1319 31.5138 18.4152 30.1961 16.9024C32.189 14.9711 34.1601 13.0613 36.2727 11.012C37.8191 12.3103 39.7304 13.7587 41.451 15.4056C42.7415 16.6395 43.7706 16.9614 45.5566 16.1245C47.1792 15.3627 48.0994 14.7243 48.0232 12.7931C47.947 10.8296 48.3444 8.84471 48.4425 6.87053C48.486 6.02828 48.7202 5.67421 49.6404 5.70104C51.6986 5.76005 53.7568 5.76541 55.8151 5.70104C56.7571 5.67421 57.0838 5.97463 57.1328 6.91344C57.258 9.34362 57.5139 11.7631 57.6609 14.1932C57.7045 14.9282 57.9223 15.3681 58.6792 15.5505C59.2073 15.6792 59.7791 15.8241 60.2038 16.1299C61.7883 17.2886 62.9154 16.6878 64.1623 15.4915C65.8231 13.8982 67.669 12.498 69.3896 11.0496C71.4043 13.0452 73.3318 14.955 75.3737 16.9721C73.6259 18.9999 71.829 21.1404 69.9559 23.2165C69.3733 23.8603 69.199 24.3914 69.7272 25.0942C69.7544 25.1317 69.7708 25.1746 69.7762 25.2176C70.2717 28.1413 72.1611 29.005 74.9653 28.8762C76.7296 28.7958 78.5155 29.1015 80.405 29.2464C80.4866 30.0135 80.5683 30.7431 80.6391 31.3708C82.534 31.4888 84.3309 31.6015 86.2965 31.7195V3.36206H106.617C106.617 3.98436 106.617 4.55837 106.617 5.12702C106.617 17.074 106.607 29.0211 106.65 40.9681C106.65 41.7031 106.961 42.5399 107.38 43.1569C108.801 45.2383 108.877 48.0762 107.429 50.147C107.2 50.4742 106.955 50.8015 106.677 51.1823C108.333 53.001 108.937 55.0717 108.229 57.4321C108.115 57.8184 108.011 58.269 107.745 58.5373C106.503 59.8087 106.601 61.3644 106.607 62.947C106.628 71.4231 106.617 79.8992 106.617 88.3753V90.0759H86.351V78.1128C84.9625 78.1128 83.7428 78.1289 82.5231 78.1128C77.7478 78.0377 73.0269 77.5817 68.5184 75.8972C66.128 75.0013 63.999 73.7567 62.4744 71.643C62.2239 71.2997 61.5759 71.0905 61.1022 71.0744C59.1801 71.01 57.258 71.1119 55.3413 71.0261C54.1543 70.9725 53.7841 71.4285 53.8984 72.5067C53.9474 72.9949 53.9093 73.4885 53.9093 74.159H40.5852C40.509 74.3253 40.4382 74.4917 40.362 74.658C40.7867 74.9101 41.1896 75.3339 41.6416 75.3875C43.2261 75.5753 44.8269 75.6719 46.4278 75.7309C47.25 75.7631 47.7019 75.9723 47.6693 76.9004C47.6148 78.4293 47.6203 79.9689 47.6693 81.4979C47.7019 82.4045 47.299 82.6352 46.4441 82.662C44.8487 82.7103 43.2533 82.8927 41.6525 82.9678C40.8793 83.0053 40.3348 83.2306 40.1551 84.0353C39.9645 84.9044 38.9572 85.6286 40.0244 86.6855C41.4074 88.0534 42.5945 89.6145 43.8577 91.0791C42.2296 92.6295 40.6342 94.1477 38.9517 95.7463C37.5523 94.5715 35.9188 93.3322 34.4487 91.9267C33.3433 90.8699 32.4939 91.7604 31.6499 92.1305C31.2306 92.3129 30.8767 93.0318 30.8114 93.5522C30.5718 95.462 30.4629 97.3879 30.2995 99.3621H23.5476C23.4115 97.6025 23.2863 95.8268 23.1338 94.0511C22.9759 92.1896 22.4641 91.5834 20.6726 91.299C20.3187 91.2454 19.8396 91.5404 19.5237 91.7979C17.9392 93.0801 16.3928 94.3998 14.8192 95.7195C13.2075 94.0994 11.6774 92.5597 10.0548 90.9289C11.367 89.4107 12.761 87.8764 14.0569 86.2616C14.3509 85.8969 14.5306 85.1833 14.3727 84.7756C14.0678 83.9924 14.1277 82.8605 12.7229 82.8122C10.6755 82.7425 8.63906 82.4957 6.52094 82.3186V75.6665C8.5465 75.5056 10.5448 75.3983 12.5268 75.1569C13.0387 75.0925 13.7302 74.7009 13.9262 74.2717C14.291 73.4777 15.1949 72.6891 14.144 71.6269C12.7501 70.2107 11.5195 68.6388 10.2835 67.2065C11.8898 65.6186 13.4307 64.1004 15.0751 62.4749C16.0117 63.2206 17.0844 64.0843 18.4402 65.1679V41.1988H35.7718L35.7609 41.1827ZM85.3273 61.2732C84.8754 58.8162 84.9407 58.7304 87.1242 58.7304C92.3405 58.7304 97.5515 58.7411 102.768 58.725C104.652 58.7197 105.801 57.6628 105.948 55.8925C106.117 53.8378 104.766 52.4323 102.534 52.4216C97.5024 52.4001 92.4712 52.4216 87.44 52.4108C86.9118 52.4108 86.3891 52.3626 85.9208 52.3411V49.9646C86.5252 49.9646 87.0207 49.9646 87.5217 49.9646C92.1881 49.9646 96.8545 49.9646 101.521 49.9592C102.158 49.9592 102.806 49.9324 103.432 49.8251C104.875 49.5676 105.768 48.5644 105.899 47.1535C106.106 44.9004 104.826 43.5592 102.376 43.5485C97.1594 43.527 91.9485 43.5485 86.7321 43.5378C84.3091 43.5324 81.8806 43.5431 79.463 43.4251C77.9928 43.35 76.6152 42.9047 75.7331 41.2846C76.7187 41.0378 77.579 40.6248 78.4339 40.6409C80.748 40.6838 83.0567 40.9091 85.3709 41.07C86.0733 41.1183 86.3564 40.8233 86.3455 40.1259C86.3183 38.5057 86.3836 36.8803 86.2965 35.2601C86.2802 34.9114 85.8282 34.3535 85.507 34.2945C83.525 33.9458 81.6192 33.8814 79.6154 34.6861C74.1758 36.8695 69.101 39.5196 65.2024 43.9938C63.9718 45.4046 62.8719 46.8424 63.1278 48.8595C63.1332 48.9185 63.0243 48.9936 62.9209 49.1116H60.7374C60.6448 48.6502 60.5577 48.2318 60.4652 47.7758H53.991C53.9637 48.3659 53.9147 48.8917 53.9147 49.4174C53.9147 55.2326 53.9583 61.0479 53.8821 66.8578C53.8657 68.2258 54.2523 68.6549 55.6463 68.6067C58.4668 68.5047 61.2982 68.5745 64.0807 68.5745C64.7341 70.8169 66.0463 72.1259 68.7852 73.2685C72.5423 74.835 76.5172 75.4251 80.5574 75.5002C85.3545 75.5914 90.1571 75.5753 94.9542 75.5109C96.6095 75.4895 97.6114 74.3146 97.5841 72.8232C97.5569 71.2729 96.4516 70.2321 94.7255 70.1946C93.3533 70.1624 91.9812 70.1839 90.609 70.1839C88.6161 70.1839 86.6178 70.1839 84.5813 70.1839V67.6357C85.1585 67.6357 85.6486 67.6357 86.1386 67.6357C90.9902 67.6357 95.8363 67.6518 100.688 67.6249C102.561 67.6142 103.775 66.4072 103.851 64.5886C103.928 62.8504 102.697 61.4395 100.895 61.3215C99.6206 61.2357 98.3355 61.2839 97.056 61.2786C93.1736 61.2786 89.2967 61.2786 85.3382 61.2786L85.3273 61.2732ZM40.2204 71.6699C43.7815 71.6699 46.8906 71.6216 49.9997 71.6967C51.1759 71.7235 51.4536 71.3051 51.4481 70.216C51.41 61.874 51.4046 53.5321 51.4481 45.1954C51.4536 44.0206 51.1378 43.6611 49.9126 43.6665C40.7595 43.7148 31.6063 43.7148 22.4586 43.6665C21.2117 43.6611 20.9286 44.0581 20.9395 45.2115C20.9885 51.8368 20.9612 58.4675 20.9667 65.0928C20.9667 65.5113 21.032 65.9351 21.0701 66.3535C22.5839 66.1979 23.3407 65.6615 23.3353 64.1326C23.3298 62.3891 23.613 60.6456 23.7763 58.8216H30.4846C30.6698 60.844 30.942 62.8021 30.991 64.771C31.0292 66.1926 32.2434 65.9726 32.9676 66.4447C33.5393 66.8202 34.0621 66.8632 34.6665 66.3213C36.1475 64.9909 37.7048 63.7517 39.0661 62.6197C40.7268 64.2291 42.3113 65.758 43.9339 67.3299C42.8123 68.6388 41.647 69.9961 40.215 71.6699H40.2204ZM69.3896 36.0058C69.9777 35.8717 71.0013 35.7751 71.9052 35.405C73.713 34.6647 75.4717 33.7956 77.2196 32.9158C77.5572 32.7495 77.7478 32.3042 78.0091 31.9877C77.677 31.8268 77.3557 31.5532 77.0127 31.521C74.6931 31.3064 72.3626 31.1669 70.0485 30.9255C69.6074 30.8772 68.9649 30.5768 68.8233 30.2281C67.9412 28.0876 67.1735 25.8989 66.3023 23.5599C68.061 21.516 69.9995 19.2575 71.8998 17.0419C70.9959 16.0977 70.2173 15.2876 69.3787 14.4132C67.0156 16.3874 64.7341 18.3025 62.7521 19.9549C60.3454 19.0482 58.2163 18.2757 56.1254 17.4227C55.777 17.2779 55.3904 16.7897 55.3468 16.4249C55.1018 14.1879 54.9003 11.9401 54.7968 9.69232C54.7478 8.64085 54.4756 8.06147 53.2886 8.23314C52.9292 8.28679 52.5535 8.27606 52.1941 8.23314C51.1977 8.11512 50.8437 8.50137 50.7947 9.50992C50.6913 11.8006 50.4789 14.0913 50.2502 16.3766C50.2121 16.7361 49.9344 17.2564 49.6349 17.3798C47.4623 18.2543 45.2517 19.0429 42.9212 19.9119C40.7921 18.1309 38.4726 16.1889 36.153 14.2523C35.2164 15.1374 34.3942 15.9099 33.5012 16.7522C35.5758 19.1555 37.5741 21.4784 39.3819 23.5706C38.5488 25.5716 37.6612 27.3151 37.1222 29.1498C36.7682 30.3515 36.1965 30.6573 35.0422 30.7109C32.4939 30.8236 29.9565 31.0757 27.2339 31.2849C27.2339 31.9663 27.2339 32.5349 27.2339 33.1089C27.2339 35.0026 27.2339 34.9865 29.1778 35.1207C31.6771 35.2923 34.1764 35.4962 36.545 35.6786C37.1331 37.2611 37.6721 38.6881 38.2003 40.1151C38.4889 40.8984 39.0116 41.172 39.8719 41.1559C42.8885 41.1076 45.9105 41.1398 48.9271 41.129C49.2374 41.129 49.5478 41.0378 50.1576 40.9466C46.6184 39.3587 44.7017 36.9929 44.5329 33.4201C44.3314 29.0801 47.3153 25.6789 51.911 24.9922C55.777 24.4182 59.7192 27.0952 60.8027 31.0382C61.8972 35.0134 59.7627 39.3802 55.7824 40.657C54.0672 41.2041 53.6752 42.041 53.8984 43.5485C53.9256 43.7255 53.9202 43.9079 53.8984 44.0903C53.8222 44.9218 54.2251 45.1847 55.0364 45.1632C56.7298 45.1203 58.4233 45.2115 60.1112 45.115C60.6448 45.0828 61.2656 44.718 61.6467 44.3264C63.3891 42.5507 65.0608 40.7106 66.7488 38.8866C67.5437 38.0336 68.3169 37.1646 69.3733 36.0058H69.3896ZM88.9537 40.9949H104.14C104.14 40.2117 104.14 39.5036 104.14 38.7954C104.14 36.9607 103.223 35.9522 101.39 35.7698C101.352 35.7698 101.314 35.7161 101.189 35.6249V33.2752C101.804 33.2752 102.31 33.2216 102.795 33.2859C103.939 33.4415 104.205 32.8997 104.156 31.8911C104.091 30.4963 104.14 29.0962 104.14 27.7014C104.14 25.8202 103.205 24.8796 101.336 24.8796C99.7622 24.8796 98.1831 24.8796 96.6421 24.8796V22.4065C98.7929 22.4065 100.846 22.3689 102.899 22.4226C103.868 22.4494 104.167 22.1007 104.162 21.1726C104.129 16.4839 104.124 11.8006 104.162 7.11193C104.173 6.11411 103.868 5.78687 102.833 5.7976C98.5806 5.84588 94.3225 5.8137 90.0699 5.81906C89.716 5.81906 89.3675 5.88344 88.9537 5.92635V40.9949ZM36.2782 86.2241C36.9752 84.6201 37.6994 83.1716 38.2221 81.6534C38.478 80.9185 38.7938 80.6395 39.5452 80.6073C41.0045 80.5483 42.4638 80.382 43.9231 80.3284C44.7398 80.2962 45.1754 80.0977 45.17 79.1696C45.17 78.1825 44.6146 78.1074 43.8577 78.0699C42.3984 78.0001 40.9337 77.9089 39.4853 77.7426C39.1205 77.6997 38.6032 77.4261 38.478 77.1257C37.7865 75.4841 37.1984 73.7996 36.5287 72.0078C37.7865 70.5379 39.1641 68.9339 40.5689 67.2923C40.0897 66.7666 39.7031 66.3428 39.2403 65.8385C37.7102 67.1207 36.3054 68.2633 34.9442 69.4543C34.4269 69.9049 34.0457 69.9532 33.3923 69.6152C32.1944 68.9875 30.9203 68.4833 29.6352 68.0434C28.9927 67.8234 28.6714 67.5927 28.6279 66.8632C28.519 65.0392 28.3066 63.2206 28.1324 61.3698H26.1504C25.9761 63.2689 25.8509 65.1036 25.6004 66.9222C25.546 67.3138 25.094 67.7912 24.702 67.979C23.4823 68.5637 22.1592 68.9554 20.9612 69.5777C20.3133 69.9156 19.9485 69.8942 19.4203 69.4274C18.0318 68.1989 16.5834 67.0295 15.0261 65.7259C14.5197 66.2033 14.0787 66.6217 13.5886 67.0938C14.9499 68.671 16.1369 70.0927 17.3838 71.466C17.863 71.9917 17.8576 72.3619 17.5254 72.9896C16.9156 74.1376 16.3928 75.3446 16.0117 76.5785C15.7939 77.2759 15.5107 77.5119 14.8029 77.5388C13.251 77.6031 11.7046 77.7587 10.1528 77.8606C9.37415 77.9143 8.88954 78.1289 8.92765 79.073C8.96577 79.9528 9.4286 80.0709 10.1528 80.1138C11.7482 80.205 13.3436 80.3284 14.9336 80.5215C15.2875 80.5644 15.7666 80.8916 15.9028 81.2135C16.5616 82.7317 17.1225 84.2875 17.765 85.9559C16.4364 87.4902 14.9934 89.1639 13.5777 90.8001C14.0678 91.3527 14.4707 91.8087 14.9118 92.3076C16.4527 91.0147 17.8957 89.8452 19.2896 88.6114C19.8396 88.1232 20.2316 88.0159 20.9449 88.4129C22.0448 89.0298 23.2917 89.3839 24.4134 89.9632C24.8381 90.1832 25.3227 90.6821 25.3935 91.1113C25.6277 92.6187 25.7093 94.153 25.8182 95.6819C25.8618 96.3418 25.8346 96.8943 26.8147 96.9158C27.822 96.9426 28.067 96.4866 28.1106 95.639C28.1923 94.153 28.2903 92.6724 28.4536 91.1971C28.4972 90.8269 28.7313 90.2798 29.0199 90.1617C30.648 89.5072 32.3251 88.9601 34.0947 88.3378C35.6248 89.6145 37.291 90.9986 39.0443 92.4578C39.5452 91.9321 39.9645 91.4975 40.4164 91.0254C38.9354 89.3034 37.5469 87.694 36.2836 86.2348L36.2782 86.2241ZM100.726 79.926C101.423 79.926 101.973 79.8777 102.506 79.9368C103.71 80.0655 104.216 79.69 104.167 78.381C104.064 75.8167 104.145 73.2417 104.135 70.672C104.135 70.259 104.058 69.8459 104.026 69.5294C102.474 69.8352 101.107 70.1034 99.6696 70.3877C99.7132 70.5916 99.7621 70.8437 99.8275 71.0958C100.895 75.0657 98.6133 78.0323 94.4587 78.0645C92.9939 78.0752 91.5292 78.1235 90.0699 78.0538C89.0844 78.0055 88.7795 78.3917 88.823 79.3037C88.8775 80.4732 88.8339 81.6481 88.8339 82.8176C88.8339 84.3787 88.8339 85.9451 88.8339 87.6243H90.56C94.1755 87.6243 97.791 87.6243 101.401 87.6243C103.227 87.6243 104.14 86.7159 104.14 84.899C104.14 83.2646 103.33 82.4295 101.711 82.3938C101.401 82.3884 101.096 82.3455 100.726 82.3133V79.9207V79.926ZM52.8312 38.7579C55.9566 38.7364 58.6138 36.0809 58.5485 33.0392C58.4886 30.0243 55.8532 27.46 52.8094 27.46C49.6948 27.46 46.9941 30.0994 47.0213 33.1304C47.0485 36.2258 49.6839 38.7793 52.8312 38.7579Z" fill="#0B0B0B" stroke="#0B0B0B" stroke-miterlimit="10"/>
<path d="M66.109 114.362C65.8966 113.472 65.7224 112.744 65.5209 111.913C78.0218 108.757 88.2796 102.262 96.4901 92.3621C97.1707 92.8908 97.8022 93.3817 98.5209 93.9373C89.9565 104.295 79.2578 111.077 66.109 114.362Z" fill="#0B0B0B" stroke="#0B0B0B" stroke-miterlimit="10"/>
<path d="M73.4662 93.362C69.5216 93.3416 66.5155 90.528 66.5209 86.8646C66.5209 83.1504 69.5871 80.3368 73.5971 80.3622C77.449 80.3877 80.5588 83.3336 80.5206 86.9257C80.4824 90.528 77.3508 93.3823 73.4607 93.362H73.4662ZM73.4553 82.7637C71.0165 82.7739 68.9979 84.6768 69.0361 86.9308C69.0743 89.1542 71.1802 91.0368 73.5971 91.0113C75.9268 90.9859 77.9182 89.0728 77.9182 86.8646C77.9182 84.5801 75.9268 82.7536 73.4498 82.7637H73.4553Z" fill="#0B0B0B" stroke="#0B0B0B" stroke-miterlimit="10"/>
<path d="M10.5244 20.3621C10.0168 19.9279 9.61177 19.5742 9.19596 19.2365C9.02315 19.0972 8.81795 18.99 8.52094 18.8024C16.0326 10.4252 24.9753 4.68505 35.7163 1.36206C35.9863 2.15529 36.2185 2.85205 36.5209 3.72567C26.3146 6.92003 17.6905 12.4137 10.5244 20.3621Z" fill="#0B0B0B" stroke="#0B0B0B" stroke-miterlimit="10"/>
<path d="M22.5209 105.118C22.0435 105.881 21.6272 106.548 21.1165 107.362C12.973 102.026 6.49477 95.1976 1.52094 86.7017C2.27589 86.2495 2.94203 85.8482 3.75805 85.3621C8.54869 93.4227 14.7493 100.002 22.5209 105.124V105.118Z" fill="#0B0B0B" stroke="#0B0B0B" stroke-miterlimit="10"/>
<path d="M96.5522 17.362C94.2729 17.3784 92.5404 15.444 92.521 12.8812C92.5065 10.3238 94.2487 8.35118 96.5135 8.36211C98.7686 8.37303 100.554 10.4003 100.52 12.903C100.487 15.3565 98.7154 17.3456 96.5522 17.3565V17.362ZM98.2169 12.9085C98.2363 11.8702 97.4814 10.9795 96.5425 10.9413C95.6279 10.9085 94.7955 11.7719 94.7568 12.8047C94.7181 13.7828 95.5456 14.7336 96.4554 14.7609C97.3991 14.7882 98.1976 13.9522 98.2169 12.9085Z" fill="#0B0B0B" stroke="#0B0B0B" stroke-miterlimit="10"/>
<path d="M27.1431 73.3626C30.1844 73.4049 32.5535 75.846 32.5206 78.9209C32.4924 81.9206 29.9728 84.3946 26.9738 84.3617C23.9701 84.3289 21.4976 81.8173 21.5211 78.8176C21.5399 75.7239 24.0171 73.3204 27.1384 73.3626H27.1431ZM30.2878 78.8786C30.3019 77.0384 28.8165 75.5361 27.0067 75.5549C25.2252 75.5737 23.7774 77.0243 23.7586 78.7988C23.7398 80.6156 25.2487 82.1413 27.0491 82.1272C28.8165 82.1131 30.2737 80.6531 30.2878 78.8739V78.8786Z" fill="#0B0B0B" stroke="#0B0B0B" stroke-miterlimit="10"/>
</svg>
