<svg width="144" height="115" viewBox="0 0 144 115" fill="none" xmlns="http://www.w3.org/2000/svg">
<path d="M61.6536 25.6064L78.3737 18.8989" stroke="#7D5530" stroke-width="2" stroke-miterlimit="10"/>
<path d="M60.7551 29.6323L80.1845 22.9248" stroke="#7D5530" stroke-width="2" stroke-miterlimit="10"/>
<path d="M60.7551 34.4758L81.5363 26.9502" stroke="#7D5530" stroke-width="2" stroke-miterlimit="10"/>
<path d="M60.7551 38.8425L82.8936 31.4253" stroke="#7D5530" stroke-width="2" stroke-miterlimit="10"/>
<path d="M61.6536 43.914L82.889 37.7158" stroke="#7D5530" stroke-width="2" stroke-miterlimit="10"/>
<path d="M58.4973 49.7598L82.8962 42.9277" stroke="#7D5530" stroke-width="2" stroke-miterlimit="10"/>
<path d="M56.2317 53.7852L83.794 47.9717" stroke="#7D5530" stroke-width="2" stroke-miterlimit="10"/>
<path d="M53.0676 58.7051L86.508 52.8916" stroke="#7D5530" stroke-width="2" stroke-miterlimit="10"/>
<path d="M55.3333 63.6298L89.7478 57.9951" stroke="#7D5530" stroke-width="2" stroke-miterlimit="10"/>
<path d="M57.1379 68.0996L89.221 62.2861" stroke="#7D5530" stroke-width="2" stroke-miterlimit="10"/>
<path d="M58.4973 72.6453L85.2989 68.0996" stroke="#7D5530" stroke-width="2" stroke-miterlimit="10"/>
<path d="M58.4973 76.7304L85.2989 73.6313" stroke="#7D5530" stroke-width="2" stroke-miterlimit="10"/>
<path d="M59.3958 80.1765L85.152 77.4946" stroke="#7D5530" stroke-width="2" stroke-miterlimit="10"/>
<path d="M59.3958 84.4782L83.7946 81.52" stroke="#7D5530" stroke-width="2" stroke-miterlimit="10"/>
<path d="M60.2473 88.5743L82.8893 85.4644" stroke="#7D5530" stroke-width="2" stroke-miterlimit="10"/>
<path d="M72.5099 7.60723C85.377 -1.50042 99.8861 -1.60878 114.472 2.97484C129.265 7.62348 139.347 17.6955 142.428 32.9905C145.044 45.9883 142.866 58.5093 134.498 69.4265C133.042 71.3228 131.635 73.2679 130.059 75.0667C125.976 79.7316 124.986 85.1279 126.315 90.9631C127.47 96.0397 128.915 101.051 130.251 106.085C130.557 107.233 131.05 108.344 131.258 109.509C131.756 112.283 130.891 113.437 128.089 113.648C125.839 113.816 123.579 113.794 121.324 113.805C109.437 113.87 97.5491 113.919 85.6616 113.968C84.9118 113.968 84.1511 114 83.4067 113.919C80.3582 113.572 79.696 112.456 80.2816 109.363C80.9165 106.025 81.3981 102.65 81.8579 99.2797C81.9783 98.4128 81.825 97.4863 81.6772 96.614C81.2175 93.9159 80.3692 92.984 77.5232 92.8539C73.7742 92.686 70.0087 92.8106 66.2487 92.8323C63.6818 92.8485 62.2424 94.306 62.226 96.7007C62.2041 100.092 62.4997 103.489 62.7569 106.881C62.8226 107.748 63.337 108.572 63.5177 109.444C64.1744 112.548 63.4191 113.61 60.3269 113.941C59.4347 114.038 58.5208 114 57.6177 113.995C44.2251 113.908 30.8326 113.811 17.44 113.719C17.139 113.719 16.838 113.724 16.5369 113.713C12.6018 113.524 11.748 112.386 12.7934 108.647C14.1945 103.63 15.6613 98.6295 17.0186 93.6016C19.0545 86.0489 17.9873 79.2602 12.3993 73.2787C4.61116 64.9459 0.884004 54.9117 0.50089 43.6206C-0.133984 25.1561 10.4619 9.406 28.0577 3.32701C38.3361 -0.221774 48.9703 -1.1645 59.5442 2.01586C63.8022 3.2945 67.7702 5.52672 72.5099 7.60723ZM58.6795 109.829C58.5262 105.256 58.0336 100.943 58.3511 96.6953C58.5864 93.5204 59.6263 90.535 57.8038 87.3872C57.1744 86.3036 57.8749 84.4886 57.8804 83.0094C57.8859 81.8446 58.2088 80.3438 57.6177 79.569C54.6787 75.6897 54.2189 71.5721 55.9813 66.9993C54.7936 66.3491 53.7428 65.8182 52.7357 65.2276C49.8569 63.5263 49.1399 61.4729 50.4863 58.4822C50.9734 57.404 51.7013 56.4288 52.3471 55.4264C54.2025 52.5387 56.0634 49.6509 57.9461 46.7739C58.9805 45.1918 59.2979 43.6206 58.7068 41.7081C56.6107 34.9193 57.7874 28.3961 61.0931 22.29C63.2002 18.389 65.778 14.7373 68.3339 10.6792C66.1283 8.56621 63.2604 7.31466 60.3104 6.29607C51.3292 3.19156 42.1289 3.4733 33.1805 5.90056C4.25541 13.7621 -2.47645 42.9271 10.8504 64.7075C12.7113 67.747 15.1304 70.4614 17.3798 73.2571C21.4901 78.3662 22.8145 84.1797 21.5722 90.4863C20.5979 95.4437 19.2133 100.32 18.0037 105.234C17.6589 106.637 17.2758 108.03 16.8051 109.834H58.6795V109.829ZM75.7116 10.4896C78.6561 15.5012 81.5459 19.8627 83.8555 24.5114C86.2965 29.4363 87.0682 34.8272 85.5412 40.1802C84.6217 43.3931 85.2183 45.9287 87.0737 48.5402C89.2355 51.5851 91.2989 54.7113 93.1433 57.9512C95.0917 61.3646 94.3857 63.3909 91.0088 65.3522C90.0127 65.9319 89.0111 66.5062 88.0862 67.0372C89.1315 71.0032 89.2465 75.9227 87.714 77.5752C85.9353 79.4932 85.9134 81.487 86.0995 83.7626C86.2199 85.2362 86.6413 87.138 85.9243 88.1349C83.954 90.8655 85.2238 93.4445 85.4591 96.1427C85.689 98.7921 85.6835 101.474 85.5576 104.129C85.4646 106.003 84.9994 107.862 84.6984 109.726C90.7516 110.544 123.223 110.192 126.852 109.243C125.544 104.237 124.214 99.2363 122.922 94.2247C120.689 85.5667 121.855 77.6673 128.286 70.9544C128.904 70.3097 129.391 69.5403 129.971 68.8576C135.198 62.7678 137.798 55.6757 139.057 47.8087C142.587 25.7683 127.35 10.7063 112.595 6.34483C105.277 4.17764 97.7735 3.64667 90.2481 4.63275C84.8735 5.33709 79.7617 7.03292 75.7116 10.4896ZM89.7445 60.5464C87.4513 56.9868 85.5522 53.6818 83.2973 50.6261C80.6045 46.9744 80.1503 43.1005 81.2503 38.869C81.5459 37.7259 81.9783 36.5393 81.9181 35.3961C81.4912 26.9603 77.7585 20.0686 71.7327 13.9138C70.6873 15.0407 69.7022 15.7884 69.133 16.7745C67.3488 19.8519 65.8656 23.1027 64.0102 26.1368C61.6021 30.0648 61.4488 34.2638 62.4011 38.4898C63.3425 42.6833 63.4137 46.3838 60.6115 50.1385C58.072 53.541 56.3261 57.5178 54.2956 61.1208C56.6271 62.5674 58.8108 63.9273 60.7921 65.1572C60.1846 67.5357 58.8272 70.1038 59.484 70.7919C61.6513 73.062 59.8233 76.0094 61.5255 78.3337C62.3957 79.5203 62.1165 81.7416 61.9305 83.4483C61.5528 86.9537 62.6255 88.4599 66.1994 88.5358C69.9211 88.6116 73.6537 88.5846 77.3754 88.4979C80.9931 88.4166 82.1862 86.9971 81.8305 83.4429C81.732 82.4731 83.1276 72.8399 83.6749 72.2276C84.6327 71.1495 84.4411 70.2501 83.954 68.9985C82.7828 65.9699 83.2316 65.0109 86.0119 63.1633C87.216 62.3615 88.3817 61.5108 89.75 60.5573L89.7445 60.5464Z" fill="#4F341B"/>
</svg>
