<svg width="115" height="108" viewBox="0 0 115 108" fill="none" xmlns="http://www.w3.org/2000/svg">
<path d="M0.0563405 57.9113C0.0563405 43.3493 0.101705 28.7822 0.0210571 14.2202C0.000895115 10.7444 2.48082 7.84204 6.40736 7.86216C25.1328 7.95271 43.8532 7.95774 62.5786 7.86216C66.5858 7.84204 69.0657 10.8048 69.0203 14.2755C68.8994 22.9775 68.9901 31.6795 68.9548 40.3866C68.9548 40.9751 68.7683 41.6994 68.3953 42.127C67.5435 43.1078 65.991 42.6752 65.613 41.4127C65.4718 40.9499 65.4416 40.4369 65.4416 39.9489C65.4315 31.3526 65.4365 22.7562 65.4315 14.1598C65.4315 12.1528 64.6049 11.3228 62.5887 11.3228C43.8683 11.3228 25.1479 11.3228 6.42752 11.3228C4.41636 11.3228 3.58972 12.1578 3.58972 14.1648C3.58972 43.2939 3.58972 72.423 3.58972 101.552C3.58972 103.645 4.29035 104.329 6.41744 104.329C25.1429 104.329 43.8632 104.329 62.5887 104.329C64.7712 104.329 65.4265 103.665 65.4265 101.462C65.4265 99.4345 65.4214 97.4124 65.4265 95.3853C65.4315 94.0272 66.117 93.2072 67.2209 93.2173C68.3651 93.2274 68.9598 93.9668 68.9649 95.4004C68.9699 97.6035 68.9699 99.8067 68.9649 102.01C68.9548 105.37 66.4194 107.86 62.9869 107.86C49.8866 107.865 36.7864 107.86 23.6862 107.86C17.8493 107.86 12.0124 107.86 6.17045 107.86C2.50602 107.86 0.041219 105.38 0.041219 101.708C0.041219 87.1108 0.041219 72.5085 0.041219 57.9113H0.0563405Z" fill="#0B0B0B"/>
<path d="M61.0612 72.0401C60.4322 71.4948 59.768 70.9792 59.1743 70.3992C54.7916 66.1012 50.419 61.7933 46.0565 57.4805C42.821 54.283 43.5154 49.8958 47.6213 47.8137C47.4503 47.5906 47.2842 47.3775 47.1182 47.1594C45.1105 44.4923 45.4325 41.2998 47.9283 39.1831C50.1926 37.2596 53.5387 37.448 55.8181 39.6738C58.7164 42.5094 61.5895 45.3747 64.4677 48.2301C64.7143 48.478 64.9256 48.7655 65.2426 49.1423C66.2842 47.2288 67.6579 45.9448 69.736 45.6474C71.8041 45.3549 73.5903 45.9597 74.8433 47.2486C75.9402 46.3216 76.8761 45.2508 78.0535 44.5964C80.1568 43.4265 82.7079 43.8826 84.4238 45.5582C91.0556 52.0374 97.6926 58.5116 104.269 65.0503C108.013 68.7732 107.907 74.1519 104.133 77.8847C99.3681 82.5991 94.603 87.3086 89.7876 91.9684C89.2945 92.4443 88.4441 92.7864 87.7498 92.8062C84.7659 92.8954 81.7821 92.8558 78.7982 92.836C76.6798 92.8211 74.6571 92.37 72.7702 91.4132C65.2426 87.6159 57.7151 83.8087 50.1825 80.0164C49.3271 79.5851 48.8742 78.9654 48.9799 78.0087C49.0655 77.2105 49.0956 76.3975 49.2869 75.6242C50.0869 72.4168 52.3613 70.9296 55.6873 71.4105C57.4182 71.6584 59.134 71.9657 60.8599 72.2483C60.9304 72.1739 60.9958 72.0996 61.0662 72.0252L61.0612 72.0401ZM82.4513 89.4551C82.4513 89.4253 82.4513 89.3956 82.4513 89.3609C83.835 89.3609 85.2288 89.4253 86.6075 89.3311C87.1761 89.2915 87.8605 89.0535 88.258 88.6718C92.7815 84.2747 97.2598 79.8429 101.743 75.4061C104.083 73.0861 104.113 69.7795 101.768 67.4595C95.3025 61.0596 88.8115 54.6845 82.3104 48.3194C81.928 47.9476 81.3896 47.6353 80.8763 47.5163C79.8247 47.2783 78.9794 47.7344 78.4762 48.6565C77.9428 49.643 78.2095 50.57 78.9592 51.3433C79.9656 52.3794 81.0877 53.3213 82.0035 54.4268C82.3557 54.8531 82.5167 55.7008 82.3406 56.2114C82.1796 56.6823 81.455 57.2276 80.9569 57.2524C80.3883 57.2822 79.6687 56.8906 79.2209 56.4692C76.9163 54.288 74.6923 52.0274 72.4129 49.8165C71.2506 48.6912 69.9121 48.6961 68.9661 49.7768C68.161 50.6939 68.2265 51.9134 69.1825 52.8801C70.7222 54.4317 72.2871 55.9586 73.8369 57.5003C74.798 58.4571 74.8936 59.508 74.1036 60.2466C73.3337 60.9704 72.3123 60.8762 71.3915 59.9789C70.5813 59.1907 69.7863 58.3926 68.9812 57.5994C63.7633 52.4439 58.5453 47.2883 53.3223 42.1376C52.4669 41.2949 51.4354 41.1065 50.5196 41.5874C49.5485 42.098 49.151 42.9556 49.3925 43.9569C49.5284 44.5221 49.9561 45.0723 50.3838 45.5036C56.3012 51.4028 62.2437 57.2772 68.1711 63.1615C69.1271 64.1084 69.2077 65.0552 68.4277 65.8286C67.6428 66.6118 66.6968 66.5424 65.7307 65.5906C62.8626 62.7749 60.0045 59.9492 57.1364 57.1335C55.2495 55.2794 53.3978 53.3907 51.4606 51.5912C49.9712 50.2081 47.9333 50.8575 47.561 52.771C47.3697 53.7427 47.9081 54.4268 48.5572 55.0613C52.2808 58.7198 56.0043 62.3783 59.7228 66.0417C63.089 69.3582 66.4502 72.6796 69.8266 75.991C70.5461 76.6999 70.9386 77.4534 70.37 78.4152C69.8769 79.243 68.9158 79.3769 67.829 78.9158C65.3986 77.8798 62.9984 76.7446 60.4876 75.9316C58.5956 75.3218 56.5628 75.0789 54.5702 74.8162C53.4783 74.6724 53.0003 75.2772 52.6179 76.5909C52.321 77.6121 53.1814 77.6716 53.7098 77.9393C60.3769 81.3301 67.0541 84.7159 73.7463 88.0621C74.6822 88.5281 75.6987 88.9841 76.7201 89.118C78.6121 89.3609 80.5342 89.3559 82.4463 89.4551H82.4513Z" fill="#0B0B0B"/>
<path d="M57.6955 19.3146H10.4269V89.396C10.822 89.4157 11.1921 89.4551 11.5672 89.4551C27.1017 89.4551 42.6412 89.4502 58.1757 89.4551C58.7658 89.4551 59.381 89.4798 59.9412 89.6426C60.6964 89.8596 61.0615 90.4317 61.0165 91.2357C60.9715 92.0248 60.5964 92.5526 59.8061 92.7351C59.436 92.8189 59.0459 92.8584 58.6608 92.8584C42.2361 92.8633 25.8113 92.8633 9.38662 92.8584C7.50608 92.8584 7.03594 92.3849 7.03594 90.5106C7.03594 71.9163 7.03594 53.322 7.03594 34.7277C7.03594 29.1543 7.02094 23.5859 7.02094 18.0125C7.02094 16.4441 7.5911 15.8621 9.17155 15.8621C25.7363 15.8621 42.3011 15.8621 58.8709 15.8621C60.3913 15.8621 61.0165 16.4194 61.0165 17.8004C61.0265 23.9311 61.0165 30.0569 61.0165 36.1876C61.0165 36.9373 60.8664 37.6722 60.0762 37.8596C59.5311 37.9878 58.7658 37.9336 58.3407 37.6327C57.9556 37.3565 57.7355 36.6364 57.7305 36.1037C57.6855 30.8806 57.6955 25.6524 57.6905 20.4293C57.6905 20.0889 57.6905 19.7486 57.6905 19.3047L57.6955 19.3146Z" fill="#0B0B0B"/>
<path d="M92.702 4.40688C92.6356 1.80329 93.1057 0.897694 94.4445 0.863242C95.768 0.828789 96.1564 1.53752 96.3097 4.3872C100.203 4.87937 103.816 6.19839 106.897 8.64941C108.129 7.80287 109.12 5.82434 110.796 7.43374C112.498 9.06283 110.382 9.98319 109.544 11.1398C113.586 16.1895 115.038 21.8347 113.295 28.041C111.834 33.2433 108.538 37.1757 103.576 39.6956C93.6883 44.7207 81.3119 40.6701 76.805 30.994C75.0574 27.2388 74.5821 23.3457 75.4304 19.3148C76.2837 15.274 78.3482 11.8879 81.5266 9.14158C84.6947 6.40018 88.4557 4.88429 92.7071 4.40688H92.702ZM94.4803 7.80287C85.497 7.79303 78.4146 14.9098 78.5526 23.3408C78.6956 32.0965 86.4577 39.0952 95.8191 38.4061C103.499 37.8401 111.164 31.309 110.367 21.7461C109.703 13.7582 102.523 7.70444 94.4803 7.80287Z" fill="#0B0B0B"/>
<path d="M34.4668 32.8586C28.8137 32.8586 23.1556 32.8586 17.5025 32.8586C15.6018 32.8586 15.0253 32.245 15.0253 30.2259C15.0253 28.1542 15.0155 26.0826 15.0253 24.011C15.0351 22.4691 15.5823 21.866 17.0334 21.866C28.7208 21.8607 40.4033 21.8607 52.0907 21.866C53.3806 21.866 53.9914 22.5058 54.0061 23.9009C54.0305 26.1193 54.0207 28.3431 54.0061 30.5615C54.0012 32.1296 53.3367 32.8481 51.8464 32.8534C48.7438 32.8691 45.6412 32.8586 42.5336 32.8586C39.8414 32.8586 37.1541 32.8586 34.4619 32.8586H34.4668ZM50.6347 29.1979C50.6347 28.2801 50.5761 27.4672 50.6493 26.67C50.752 25.6159 50.4197 25.2907 49.4083 25.2959C39.4701 25.3379 29.5368 25.3169 19.5986 25.3222C19.2322 25.3222 18.8657 25.3589 18.4944 25.3799V29.1927H50.6347V29.1979Z" fill="#0B0B0B"/>
<path d="M25.0165 63.8677C27.7407 63.8677 30.465 63.8504 33.1893 63.8764C34.6457 63.8894 35.5082 65.114 34.7258 66.0877C34.4147 66.4686 33.7501 66.8191 33.2458 66.8234C27.7643 66.8754 22.2781 66.8667 16.7966 66.8451C15.7267 66.8451 14.9631 66.0791 15.0244 65.2352C15.0809 64.4476 15.8728 63.872 16.9427 63.8677C19.6339 63.8591 22.3252 63.8677 25.0165 63.8677Z" fill="#0B0B0B"/>
<path d="M25.1268 75.8667C27.7557 75.8667 30.3846 75.8538 33.0135 75.871C34.54 75.884 35.4823 76.9549 34.7897 77.9567C34.4929 78.3885 33.7438 78.8073 33.1973 78.816C27.7463 78.8808 22.2905 78.8635 16.8395 78.8462C15.7983 78.8462 15.0162 78.138 15.021 77.3565C15.0257 76.5274 15.8125 75.884 16.9432 75.8754C19.671 75.8538 22.3989 75.8667 25.1268 75.8667Z" fill="#0B0B0B"/>
<path d="M25.0036 69.8641C27.7008 69.8641 30.398 69.8595 33.0953 69.8641C34.2553 69.8641 34.9814 70.3979 35.0192 71.2483C35.0616 72.2254 34.3354 72.8541 33.1141 72.8587C27.7197 72.8632 22.3252 72.8632 16.9308 72.8587C15.7283 72.8587 15.0305 72.2977 15.021 71.3659C15.0116 70.4612 15.7566 69.8686 16.9213 69.8686C19.6186 69.8686 22.3158 69.8686 25.013 69.8686L25.0036 69.8641Z" fill="#0B0B0B"/>
<path d="M95.0209 14.8621V29.8621" stroke="#0B0B0B" stroke-width="3" stroke-miterlimit="10" stroke-linecap="round"/>
</svg>
