<svg width="89" height="113" viewBox="0 0 89 113" fill="none" xmlns="http://www.w3.org/2000/svg">
<path d="M73.4927 43.7978L86.526 41.7437" stroke="#7D5530" stroke-width="3" stroke-miterlimit="10" stroke-linecap="round"/>
<path d="M69.4978 27.0625L81.3836 21.3345" stroke="#7D5530" stroke-width="3" stroke-miterlimit="10" stroke-linecap="round"/>
<path d="M59.3865 18.0994L68.047 8.14502" stroke="#7D5530" stroke-width="3" stroke-miterlimit="10" stroke-linecap="round"/>
<path d="M26.3519 18.0994L17.6914 8.14502" stroke="#7D5530" stroke-width="3" stroke-miterlimit="10" stroke-linecap="round"/>
<path d="M16.5105 29.1163L4.72388 23.1899" stroke="#7D5530" stroke-width="3" stroke-miterlimit="10" stroke-linecap="round"/>
<path d="M15.5021 43.7835L2.46875 41.7529" stroke="#7D5530" stroke-width="3" stroke-miterlimit="10" stroke-linecap="round"/>
<path d="M44.1086 15.1938L44.255 2" stroke="#7D5530" stroke-width="3" stroke-miterlimit="10" stroke-linecap="round"/>
<path d="M72.219 48.2769C72.2085 51.3417 70.9416 56.5092 67.7506 60.9303C60.822 70.5347 57.9885 81.2588 58.2671 92.9554C58.3197 95.2474 58.2829 97.5447 58.2619 99.8367C58.2356 102.633 57.0633 104.799 54.4296 105.845C53.1889 106.339 52.5844 107.123 51.9325 108.19C48.873 113.168 40.3673 113.079 37.1921 108.148C36.6559 107.317 35.8779 106.471 35.0105 106.056C32.1507 104.689 31.0783 102.502 30.9731 99.4004C30.7629 93.3917 30.5736 87.3515 29.8219 81.3955C28.8967 74.0989 25.732 67.5961 21.6474 61.4823C14.8659 51.3207 15.2234 38.7882 22.357 29.289C29.4592 19.8318 41.8971 15.8944 53.1048 19.5584C64.4493 23.2645 72.2033 33.9518 72.2138 48.2769H72.219ZM55.0341 88.0822C55.3758 85.3486 55.5808 82.9515 55.9909 80.5911C57.3419 72.8635 60.5013 65.9349 64.9277 59.4426C71.031 50.4901 70.3108 38.7409 63.5188 30.4507C56.7374 22.1711 45.5874 19.1904 35.7359 23.028C25.7215 26.9286 19.3606 36.8011 20.0124 47.5147C20.3016 52.2091 21.9785 56.4199 24.6438 60.2732C28.6023 66.0032 31.3254 72.28 32.6764 79.1139C33.2547 82.0315 33.549 85.007 33.9906 88.0875H55.0341V88.0822ZM54.6766 95.9518H34.7161C34.3902 98.9588 34.3902 99.0902 36.6033 99.127C41.9076 99.2059 47.2118 99.2006 52.5213 99.127C54.766 99.1007 54.766 98.9903 54.6819 95.9518H54.6766ZM34.101 101.629C35.5046 102.271 36.4772 103.085 37.4707 103.112C42.2861 103.243 47.1067 103.185 51.922 103.138C53.1574 103.128 54.214 102.67 54.582 101.277C51.2281 100.084 37.4181 100.168 34.101 101.629ZM54.7397 91.9881C49.8455 91.331 37.0134 91.494 34.4848 92.2142C34.1746 93.4706 34.7844 94.0646 35.962 94.0699C41.7604 94.0909 47.5588 94.0909 53.3519 94.0646C54.5557 94.0593 55.1077 93.4127 54.7397 91.9881ZM40.7878 106.581C43.5582 109.231 46.8491 109.047 48.4892 106.581H40.7878Z" fill="#4F341B" stroke="#4F341B" stroke-miterlimit="10"/>
</svg>
