<svg width="126" height="114" viewBox="0 0 126 114" fill="none" xmlns="http://www.w3.org/2000/svg">
<path d="M64.5026 56.4659C64.5026 60.7679 61.023 64.2501 56.7372 64.2501C52.4515 64.2501 48.9719 60.7679 48.9719 56.4659C48.9719 52.1639 52.4515 48.6816 56.7372 48.6816C61.023 48.6816 64.5026 52.1639 64.5026 56.4659Z" stroke="#7D5530" stroke-width="3"/>
<path d="M93.5179 13.7638C92.2207 14.6048 91.2124 15.2547 90.2805 15.8555C64.5011 -3.4721 35.5661 3.46377 19.7224 19.6238C2.49978 37.1874 -0.42152 64.0188 12.7734 84.6298C26.2299 105.65 52.1346 114.246 75.4014 105.426C99.7638 96.1859 112.01 73.2211 107.89 44.1014C108.757 43.5279 109.743 42.8671 110.98 42.0425C111.389 42.9927 111.814 43.6481 111.961 44.3581C115.128 59.6279 112.659 73.9529 104.277 87.0764C86.8414 114.383 49.9382 121.264 23.701 102.232C-2.31819 83.3573 -7.2615 46.4006 12.8497 21.1147C32.5575 -3.66325 69.9077 -7.30594 93.5179 13.7638Z" fill="#4F341B"/>
<path d="M82.8481 29.2962C81.1476 28.0838 79.9104 27.1608 78.6351 26.2924C66.3667 17.9476 53.3517 16.6368 40.1295 23.3051C26.8747 29.9897 20.0565 41.393 19.5605 56.1494C18.9665 73.8987 32.6955 90.1406 50.1688 93.0788C70.3236 96.4703 88.8596 84.297 93.1053 64.3469C94.1354 59.5191 93.3778 54.309 93.4105 49.2736C93.4105 48.8149 93.1326 48.3671 93.0563 47.8974C92.8655 46.6741 92.3478 45.0466 94.1082 44.8773C94.7458 44.8172 95.9994 46.3737 96.2065 47.3567C98.6482 59.0439 97.1058 70.1468 89.9388 79.857C79.4581 94.0509 65.1731 99.8672 47.9778 96.0389C31.8071 92.4398 21.2882 81.9159 17.4404 65.7067C11.9684 42.66 26.8583 20.1648 50.5993 16.3365C61.7613 14.5397 72.2529 17.172 81.4201 24.1461C83.731 25.8992 83.7038 25.9375 82.8481 29.2962Z" fill="#4F341B"/>
<path d="M93.417 36.5432C83.7593 42.9548 74.1887 49.3336 64.591 55.6687C62.618 56.974 60.596 58.2301 58.4922 59.3005C56.7318 60.1961 55.0531 59.792 54.0067 57.9952C53.0584 56.3623 53.587 54.8222 54.9605 53.79C56.9771 52.2772 59.1244 50.9338 61.2827 49.6285C70.4445 44.0744 79.6062 38.5202 88.8225 33.0534C90.6483 31.9721 91.0898 30.3774 90.7846 28.6352C89.9888 24.075 92.4087 21.7212 96.0058 19.6514C101.342 16.5821 106.432 13.1032 111.702 9.9193C115.823 7.42895 117.567 8.33006 117.332 13.2234C117.147 17.1119 118.368 19.2418 122.058 20.6835C126.461 22.3984 126.549 24.6758 122.625 27.2207C116.929 30.9126 111.081 34.3805 105.435 38.1379C102.895 39.8254 100.589 40.104 97.9625 38.5803C96.7416 37.8758 95.3791 37.4115 93.4115 36.5487L93.417 36.5432ZM96.9487 32.1578C98.6982 32.4581 101.031 33.6542 102.41 32.9551C106.961 30.645 111.163 27.6522 116.809 24.1023C111.888 23.376 111.735 20.2466 111.201 16.9917C107.211 19.4821 103.745 21.9287 100.023 23.8839C96.8343 25.555 95.766 27.7996 96.9487 32.1578Z" fill="#4F341B"/>
<path d="M70.6603 36.1556C69.2214 38.3128 67.5646 37.5319 65.7442 36.7181C60.9862 34.5827 56.1083 34.1131 51.0069 35.5658C40.6243 38.5149 34.0241 48.449 35.4248 59.5956C36.7492 70.1577 46.4451 77.8691 56.2228 78.1149C68.1369 78.4098 77.8436 69.0491 78.5849 57.5639C78.6939 55.8709 77.9308 53.5717 80.8576 53.326C83.9043 61.8183 77.9799 73.8004 68.3549 78.7593C57.2583 84.4773 43.4039 81.053 36.3623 70.8513C29.3915 60.7534 30.8576 46.6959 39.5888 38.3292C47.9657 30.3011 62.2834 28.8211 70.6657 36.1611L70.6603 36.1556Z" fill="#4F341B"/>
</svg>
