<svg width="139" height="40" viewBox="0 0 139 40" fill="none" xmlns="http://www.w3.org/2000/svg">
<path d="M76.533 15.4115H71.5731V14.2119H76.535V15.4135L76.533 15.4115ZM68.2704 20.3353C68.5912 20.8174 68.7496 21.4037 68.7496 22.0922C68.7496 22.8058 68.5714 23.4423 68.2031 24.0073C67.9578 24.4043 67.6299 24.7468 67.2404 25.0129C66.851 25.279 66.4087 25.4626 65.9419 25.5522C65.369 25.6638 64.7858 25.7181 64.2015 25.7142H58.6536V13.7144H64.6035C66.1023 13.7375 67.1656 14.1618 67.7933 14.993C68.1695 15.5022 68.3576 16.1135 68.3576 16.8252C68.3576 17.5581 68.1695 18.1463 67.7873 18.5918C67.5774 18.8425 67.2646 19.0701 66.8508 19.2745C67.4765 19.4983 67.9517 19.8493 68.2704 20.3353ZM61.4949 18.4452H64.1025C64.6371 18.4452 65.0707 18.3469 65.4034 18.1482C65.738 17.9496 65.9043 17.5986 65.9043 17.0933C65.9043 16.534 65.6845 16.1637 65.243 15.9863C64.7712 15.8486 64.28 15.7848 63.7877 15.7973H61.4949V18.4452ZM66.1558 21.9206C66.1558 21.2976 65.8924 20.8676 65.3717 20.6361C65.0787 20.505 64.6668 20.4375 64.1401 20.4317H61.4949V23.6293H64.0986C64.6332 23.6293 65.049 23.5618 65.346 23.4191C65.8845 23.1588 66.1558 22.6612 66.1558 21.9206ZM78.3744 19.9688C78.4338 20.3623 78.4615 20.9312 78.4516 21.6757H72.0265C72.0621 22.5397 72.3671 23.1433 72.9492 23.4885C73.2977 23.7065 73.7214 23.8126 74.2203 23.8126C74.745 23.8126 75.1707 23.6833 75.5014 23.4172C75.6983 23.2535 75.8592 23.0527 75.9746 22.827H78.3308C78.2675 23.3381 77.9843 23.855 77.4755 24.3815C76.6835 25.2166 75.5786 25.6351 74.155 25.6351C73.0235 25.6493 71.923 25.2752 71.0464 24.5782C70.1514 23.8723 69.7 22.7267 69.7 21.1356C69.7 19.6448 70.1059 18.5031 70.9157 17.7085C71.7275 16.912 72.7789 16.5166 74.0738 16.5166C74.8401 16.5166 75.5311 16.6497 76.1489 16.9178C76.7627 17.1878 77.2715 17.6101 77.6715 18.1907C78.0338 18.7037 78.2655 19.2938 78.3744 19.9688ZM76.0578 20.1926C76.0142 19.5947 75.8083 19.1434 75.44 18.8348C75.0599 18.5195 74.5729 18.3531 74.0738 18.3681C73.4798 18.3681 73.0224 18.5359 72.6957 18.8618C72.369 19.1897 72.1651 19.6333 72.0819 20.1926H76.0578Z" fill="#08061B"/>
<path d="M56.6735 3.85714C55.6233 3.85714 54.616 4.26352 53.8734 4.98687C53.1308 5.71023 52.7135 6.69131 52.7135 7.71429V30.8571C52.7135 31.8801 53.1308 32.8612 53.8734 33.5846C54.616 34.3079 55.6233 34.7143 56.6735 34.7143H80.4335C81.4838 34.7143 82.491 34.3079 83.2337 33.5846C83.9763 32.8612 84.3935 31.8801 84.3935 30.8571V7.71429C84.3935 6.69131 83.9763 5.71023 83.2337 4.98687C82.491 4.26352 81.4838 3.85714 80.4335 3.85714H56.6735ZM56.6735 0H80.4335C82.5341 0 84.5485 0.812753 86.0338 2.25946C87.5191 3.70617 88.3535 5.66833 88.3535 7.71429V30.8571C88.3535 32.9031 87.5191 34.8653 86.0338 36.312C84.5485 37.7587 82.5341 38.5714 80.4335 38.5714H56.6735C54.573 38.5714 52.5585 37.7587 51.0733 36.312C49.588 34.8653 48.7535 32.9031 48.7535 30.8571V7.71429C48.7535 5.66833 49.588 3.70617 51.0733 2.25946C52.5585 0.812753 54.573 0 56.6735 0Z" fill="#08061B"/>
<path d="M128.854 21.8474V29.1428H124.61V22.3348C124.61 20.6259 123.997 19.4597 122.46 19.4597C121.288 19.4597 120.589 20.245 120.282 21.0068C120.171 21.2791 120.142 21.6579 120.142 22.0368V29.1428H115.896C115.896 29.1428 115.954 17.6146 115.896 16.4207H120.142V18.2224L120.114 18.2638H120.142V18.2224C120.706 17.3541 121.712 16.1208 123.967 16.1208C126.759 16.1208 128.854 17.9402 128.854 21.8474ZM111.455 10.2856C110.004 10.2856 109.054 11.2368 109.054 12.4839C109.054 13.7074 109.976 14.6842 111.4 14.6842H111.428C112.909 14.6842 113.829 13.7054 113.829 12.4839C113.802 11.2368 112.909 10.2856 111.455 10.2856ZM109.305 29.1428H113.55V16.4207H109.305V29.1428Z" fill="#08061B"/>
<path d="M106.354 3.94286C105.279 3.94286 104.249 4.35826 103.49 5.09769C102.73 5.83712 102.304 6.84 102.304 7.88571V31.5429C102.304 32.5886 102.73 33.5914 103.49 34.3309C104.249 35.0703 105.279 35.4857 106.354 35.4857H130.654C131.728 35.4857 132.758 35.0703 133.517 34.3309C134.277 33.5914 134.704 32.5886 134.704 31.5429V7.88571C134.704 6.84 134.277 5.83712 133.517 5.09769C132.758 4.35826 131.728 3.94286 130.654 3.94286H106.354ZM106.354 0H130.654C132.802 0 134.862 0.830814 136.381 2.30967C137.9 3.78853 138.754 5.79429 138.754 7.88571V31.5429C138.754 33.6343 137.9 35.64 136.381 37.1189C134.862 38.5978 132.802 39.4286 130.654 39.4286H106.354C104.205 39.4286 102.145 38.5978 100.626 37.1189C99.1069 35.64 98.2535 33.6343 98.2535 31.5429V7.88571C98.2535 5.79429 99.1069 3.78853 100.626 2.30967C102.145 0.830814 104.205 0 106.354 0Z" fill="#08061B"/>
<path d="M20.4036 10.7143C18.6235 10.7143 16.8835 11.217 15.4034 12.1588C13.9234 13.1007 12.7698 14.4393 12.0886 16.0056C11.4075 17.5718 11.2292 19.2952 11.5765 20.9579C11.9238 22.6206 12.7809 24.1479 14.0396 25.3466C15.2983 26.5454 16.9019 27.3617 18.6478 27.6924C20.3936 28.0232 22.2032 27.8534 23.8477 27.2047C25.4923 26.5559 26.8979 25.4573 27.8868 24.0477C28.8757 22.6382 29.4036 20.981 29.4036 19.2857C29.4011 17.0132 28.4521 14.8344 26.7648 13.2274C25.0775 11.6205 22.7898 10.7167 20.4036 10.7143ZM20.4036 23.5714C19.5135 23.5714 18.6435 23.3201 17.9035 22.8492C17.1635 22.3782 16.5867 21.7089 16.2461 20.9258C15.9055 20.1427 15.8164 19.281 15.99 18.4496C16.1637 17.6183 16.5922 16.8546 17.2216 16.2553C17.8509 15.6559 18.6527 15.2477 19.5257 15.0824C20.3986 14.917 21.3034 15.0019 22.1256 15.3262C22.9479 15.6506 23.6507 16.1999 24.1452 16.9047C24.6396 17.6095 24.9036 18.4381 24.9036 19.2857C24.9036 20.4224 24.4295 21.5124 23.5855 22.3162C22.7416 23.1199 21.597 23.5714 20.4036 23.5714ZM29.4036 0H11.4036C8.42095 0.00330824 5.56148 1.13319 3.45245 3.1418C1.34342 5.1504 0.157038 7.8737 0.153564 10.7143V27.8571C0.157038 30.6977 1.34342 33.421 3.45245 35.4296C5.56148 37.4382 8.42095 38.5681 11.4036 38.5714H29.4036C32.3862 38.5681 35.2456 37.4382 37.3547 35.4296C39.4637 33.421 40.6501 30.6977 40.6536 27.8571V10.7143C40.6501 7.8737 39.4637 5.1504 37.3547 3.1418C35.2456 1.13319 32.3862 0.00330824 29.4036 0ZM36.1536 27.8571C36.1536 29.5621 35.4424 31.1972 34.1765 32.4028C32.9107 33.6084 31.1938 34.2857 29.4036 34.2857H11.4036C9.61335 34.2857 7.89646 33.6084 6.63059 32.4028C5.36472 31.1972 4.65356 29.5621 4.65356 27.8571V10.7143C4.65356 9.00932 5.36472 7.37419 6.63059 6.1686C7.89646 4.96301 9.61335 4.28571 11.4036 4.28571H29.4036C31.1938 4.28571 32.9107 4.96301 34.1765 6.1686C35.4424 7.37419 36.1536 9.00932 36.1536 10.7143V27.8571ZM33.1536 10C33.1536 10.5651 32.9776 11.1175 32.648 11.5873C32.3183 12.0572 31.8498 12.4234 31.3016 12.6397C30.7534 12.8559 30.1502 12.9125 29.5683 12.8022C28.9864 12.692 28.4518 12.4199 28.0322 12.0203C27.6127 11.6207 27.327 11.1116 27.2112 10.5574C27.0955 10.0032 27.1549 9.42869 27.3819 8.90662C27.609 8.38455 27.9935 7.93832 28.4869 7.62437C28.9802 7.31043 29.5602 7.14286 30.1536 7.14286C30.9492 7.14286 31.7123 7.44388 32.2749 7.9797C32.8375 8.51551 33.1536 9.24224 33.1536 10Z" fill="#08061B"/>
</svg>
