<svg width="87" height="113" viewBox="0 0 87 113" fill="none" xmlns="http://www.w3.org/2000/svg">
<path d="M71.1286 48.9606C71.1182 51.987 69.8672 57.0897 66.7162 61.4553C59.8745 70.9391 57.0766 81.5287 57.3517 93.0785C57.4036 95.3418 57.3673 97.6103 57.3465 99.8735C57.3206 102.635 56.163 104.774 53.5623 105.807C52.3372 106.295 51.7403 107.068 51.0966 108.122C48.0755 113.038 39.6765 112.95 36.5411 108.08C36.0116 107.26 35.2434 106.424 34.3869 106.014C31.563 104.665 30.504 102.505 30.4002 99.4427C30.1925 93.5094 30.0057 87.545 29.2634 81.6636C28.3498 74.4586 25.2248 68.0374 21.1914 62.0003C14.495 51.9662 14.848 39.591 21.8922 30.2109C28.9052 20.8724 41.187 16.9844 52.2542 20.6025C63.4563 24.2621 71.113 34.8153 71.1234 48.9606H71.1286ZM54.1593 88.2665C54.4967 85.5672 54.6991 83.2002 55.104 80.8694C56.4381 73.2387 59.5579 66.397 63.9287 59.9862C69.9554 51.146 69.2442 39.5442 62.5375 31.3581C55.8412 23.1824 44.8311 20.2391 35.1032 24.0285C25.2144 27.8802 18.9333 37.6288 19.577 48.2079C19.8625 52.8435 21.5184 57.0014 24.1503 60.8064C28.0591 66.4645 30.748 72.6625 32.0821 79.4108C32.6531 82.2917 32.9438 85.2298 33.3798 88.2717H54.1593V88.2665ZM53.8063 96.0374H34.0962C33.7743 99.0066 33.7743 99.1364 35.9597 99.1727C41.1974 99.2506 46.4351 99.2454 51.678 99.1727C53.8945 99.1468 53.8945 99.0378 53.8115 96.0374H53.8063ZM33.4888 101.644C34.8748 102.277 35.8351 103.082 36.8162 103.107C41.5712 103.237 46.3313 103.18 51.0862 103.133C52.3061 103.123 53.3495 102.671 53.7129 101.296C50.401 100.117 36.7643 100.201 33.4888 101.644ZM53.8686 92.1234C49.0358 91.4745 36.3646 91.6355 33.8678 92.3466C33.5615 93.5873 34.1636 94.1738 35.3264 94.179C41.0521 94.1998 46.7777 94.1998 52.4982 94.1738C53.6869 94.1686 54.2319 93.5302 53.8686 92.1234ZM40.0917 106.533C42.8274 109.15 46.0769 108.968 47.6965 106.533H40.0917Z" fill="#0B0B0B" stroke="#0B0B0B" stroke-miterlimit="10"/>
<path d="M72.3815 42.879L85.2513 40.8506" stroke="#0B0B0B" stroke-width="3" stroke-miterlimit="10" stroke-linecap="round"/>
<path d="M68.4362 26.3534L80.1729 20.6973" stroke="#0B0B0B" stroke-width="3" stroke-miterlimit="10" stroke-linecap="round"/>
<path d="M58.4518 17.5031L67.0037 7.67358" stroke="#0B0B0B" stroke-width="3" stroke-miterlimit="10" stroke-linecap="round"/>
<path d="M25.8318 17.5031L17.28 7.67358" stroke="#0B0B0B" stroke-width="3" stroke-miterlimit="10" stroke-linecap="round"/>
<path d="M16.114 28.3818L4.47528 22.5298" stroke="#0B0B0B" stroke-width="3" stroke-miterlimit="10" stroke-linecap="round"/>
<path d="M15.1185 42.8649L2.24872 40.8599" stroke="#0B0B0B" stroke-width="3" stroke-miterlimit="10" stroke-linecap="round"/>
<path d="M43.3659 14.6337L43.5105 1.60547" stroke="#0B0B0B" stroke-width="3" stroke-miterlimit="10" stroke-linecap="round"/>
</svg>
