<svg width="182" height="115" viewBox="0 0 182 115" fill="none" xmlns="http://www.w3.org/2000/svg">
<g clip-path="url(#clip0_1_153)">
<path d="M110.786 8.21172C123.653 -0.895928 138.162 -1.00429 152.748 3.57933C167.542 8.22797 177.623 18.3 180.704 33.595C183.32 46.5928 181.142 59.1138 172.774 70.031C171.318 71.9273 169.911 73.8724 168.335 75.6712C164.252 80.3361 163.262 85.7324 164.592 91.5676C165.746 96.6442 167.191 101.656 168.527 106.689C168.833 107.838 169.326 108.948 169.534 110.113C170.032 112.887 169.167 114.041 166.365 114.253C164.115 114.421 161.855 114.399 159.6 114.41C147.713 114.475 135.825 114.524 123.938 114.572C123.188 114.572 122.427 114.605 121.683 114.524C118.634 114.177 117.972 113.061 118.558 109.967C119.193 106.63 119.674 103.254 120.134 99.8842C120.254 99.0173 120.101 98.0908 119.953 97.2185C119.494 94.5204 118.645 93.5885 115.799 93.4584C112.05 93.2905 108.285 93.4151 104.525 93.4368C101.958 93.453 100.519 94.9105 100.502 97.3052C100.48 100.697 100.776 104.094 101.033 107.486C101.099 108.353 101.613 109.176 101.794 110.048C102.451 113.153 101.695 114.215 98.603 114.545C97.7109 114.643 96.7969 114.605 95.8938 114.599C82.5013 114.513 69.1087 114.415 55.7161 114.323C55.4151 114.323 55.1141 114.329 54.8131 114.318C50.8779 114.128 50.0241 112.99 51.0695 109.252C52.4706 104.235 53.9374 99.234 55.2947 94.2061C57.3307 86.6534 56.2634 79.8647 50.6754 73.8832C42.8873 65.5503 39.1601 55.5162 38.777 44.2251C38.1421 25.7606 48.738 10.0105 66.3338 3.9315C76.6122 0.382718 87.2464 -0.560012 97.8203 2.62035C102.078 3.899 106.046 6.13121 110.786 8.21172ZM96.9556 110.433C96.8023 105.86 96.3098 101.547 96.6272 97.2998C96.8625 94.1248 97.9024 91.1395 96.0799 87.9917C95.4505 86.9081 96.1511 85.0931 96.1565 83.6139C96.162 82.4491 96.4849 80.9483 95.8938 80.1735C92.9548 76.2942 92.4951 72.1766 94.2574 67.6038C93.0697 66.9536 92.0189 66.4226 91.0119 65.8321C88.133 64.1308 87.4161 62.0774 88.7624 59.0867C89.2495 58.0085 89.9774 57.0333 90.6233 56.0309C92.4786 53.1431 94.3395 50.2554 96.2222 47.3784C97.2566 45.7963 97.574 44.2251 96.983 42.3126C94.8868 35.5238 96.0635 29.0006 99.3692 22.8945C101.476 18.9935 104.054 15.3418 106.61 11.2837C104.404 9.1707 101.537 7.91915 98.5866 6.90056C89.6053 3.79605 80.4051 4.07779 71.4566 6.50505C42.5315 14.3666 35.7997 43.5316 49.1266 65.312C50.9874 68.3514 53.4065 71.0659 55.6559 73.8615C59.7662 78.9707 61.0907 84.7842 59.8483 91.0908C58.8741 96.0482 57.4894 100.924 56.2798 105.839C55.935 107.242 55.5519 108.634 55.0812 110.438H96.9556V110.433ZM113.988 11.0941C116.932 16.1057 119.822 20.4672 122.132 25.1159C124.573 30.0408 125.344 35.4317 123.817 40.7847C122.898 43.9976 123.494 46.5332 125.35 49.1447C127.512 52.1896 129.575 55.3158 131.419 58.5557C133.368 61.9691 132.662 63.9954 129.285 65.9567C128.289 66.5364 127.287 67.1107 126.362 67.6417C127.408 71.6077 127.523 76.5272 125.99 78.1797C124.211 80.0977 124.19 82.0915 124.376 84.367C124.496 85.8407 124.917 87.7424 124.2 88.7394C122.23 91.47 123.5 94.049 123.735 96.7472C123.965 99.3966 123.96 102.078 123.834 104.733C123.741 106.608 123.276 108.466 122.974 110.33C129.028 111.148 161.499 110.796 165.128 109.848C163.82 104.842 162.49 99.8408 161.198 94.8292C158.965 86.1712 160.131 78.2718 166.562 71.5589C167.18 70.9142 167.667 70.1448 168.248 69.4621C173.474 63.3723 176.074 56.2802 177.333 48.4132C180.863 26.3728 165.626 11.3108 150.871 6.94933C143.553 4.78213 136.05 4.25117 128.524 5.23724C123.15 5.94158 118.038 7.63741 113.988 11.0941ZM128.021 61.1509C125.727 57.5913 123.828 54.2863 121.573 51.2306C118.881 47.5789 118.426 43.705 119.526 39.4735C119.822 38.3303 120.254 37.1438 120.194 36.0006C119.767 27.5648 116.035 20.6731 110.009 14.5183C108.963 15.6452 107.978 16.3929 107.409 17.379C105.625 20.4564 104.142 23.7072 102.286 26.7413C99.8782 30.6693 99.725 34.8682 100.677 39.0943C101.619 43.2878 101.69 46.9883 98.8876 50.743C96.3481 54.1455 94.6022 58.1223 92.5717 61.7252C94.9032 63.1718 97.0869 64.5318 99.0682 65.7617C98.4607 68.1401 97.1034 70.7083 97.7601 71.3964C99.9275 73.6665 98.0995 76.6139 99.8016 78.9382C100.672 80.1247 100.393 82.3461 100.207 84.0528C99.8289 87.5582 100.902 89.0644 104.476 89.1403C108.197 89.2161 111.93 89.189 115.652 89.1024C119.269 89.0211 120.462 87.6016 120.107 84.0474C120.008 83.0776 121.404 73.4444 121.951 72.8321C122.909 71.7539 122.717 70.8546 122.23 69.603C121.059 66.5743 121.508 65.6154 124.288 63.7678C125.492 62.966 126.658 62.1153 128.026 61.1618L128.021 61.1509Z" fill="#0B0B0B"/>
<path d="M99.9297 26.2109L116.65 19.5034" stroke="#0B0B0B" stroke-width="2" stroke-miterlimit="10"/>
<path d="M99.0312 30.2368L118.461 23.5293" stroke="#0B0B0B" stroke-width="2" stroke-miterlimit="10"/>
<path d="M99.0312 35.0803L119.812 27.5547" stroke="#0B0B0B" stroke-width="2" stroke-miterlimit="10"/>
<path d="M99.0312 39.447L121.17 32.0298" stroke="#0B0B0B" stroke-width="2" stroke-miterlimit="10"/>
<path d="M99.9297 44.5185L121.165 38.3203" stroke="#0B0B0B" stroke-width="2" stroke-miterlimit="10"/>
<path d="M96.7734 50.3643L121.172 43.5322" stroke="#0B0B0B" stroke-width="2" stroke-miterlimit="10"/>
<path d="M94.5078 54.3897L122.07 48.5762" stroke="#0B0B0B" stroke-width="2" stroke-miterlimit="10"/>
<path d="M91.3438 59.3096L124.784 53.4961" stroke="#0B0B0B" stroke-width="2" stroke-miterlimit="10"/>
<path d="M93.6094 64.2343L128.024 58.5996" stroke="#0B0B0B" stroke-width="2" stroke-miterlimit="10"/>
<path d="M95.4141 68.7041L127.497 62.8906" stroke="#0B0B0B" stroke-width="2" stroke-miterlimit="10"/>
<path d="M96.7734 73.2498L123.575 68.7041" stroke="#0B0B0B" stroke-width="2" stroke-miterlimit="10"/>
<path d="M96.7734 77.3349L123.575 74.2358" stroke="#0B0B0B" stroke-width="2" stroke-miterlimit="10"/>
<path d="M97.6719 80.781L123.428 78.0991" stroke="#0B0B0B" stroke-width="2" stroke-miterlimit="10"/>
<path d="M97.6719 85.0827L122.071 82.1245" stroke="#0B0B0B" stroke-width="2" stroke-miterlimit="10"/>
<path d="M98.5234 89.1788L121.165 86.0688" stroke="#0B0B0B" stroke-width="2" stroke-miterlimit="10"/>
</g>
<defs>
<clipPath id="clip0_1_153">
<rect width="181" height="114" fill="white" transform="translate(0.75 0.605469)"/>
</clipPath>
</defs>
</svg>
