<svg width="168" height="45" viewBox="0 0 168 45" fill="none" xmlns="http://www.w3.org/2000/svg">
<g clip-path="url(#clip0_304_442)">
<path d="M13.7364 35.6599L31.0853 13.4919V6.73242H0.640239V15.0364H18.4738V15.2998L6.10352e-05 38.0221V44.2274H31.7163V35.9234H13.7364V35.6599Z" fill="#161237"/>
<path d="M165.677 2.48962C164.57 1.4539 163.244 0.936035 161.681 0.936035C160.117 0.936035 158.791 1.4539 157.684 2.48962C156.577 3.52534 156.029 4.75185 156.029 6.18733C156.029 7.6228 156.577 8.87657 157.684 9.91229C158.791 10.948 160.117 11.4659 161.681 11.4659C163.244 11.4659 164.57 10.948 165.677 9.91229C166.784 8.87657 167.332 7.64097 167.332 6.18733C167.332 4.73368 166.784 3.52534 165.677 2.48962Z" fill="#987BD7"/>
<path d="M45.6081 6.73242H35.1458V44.2274H45.6081V6.73242Z" fill="#161237"/>
<path d="M68.7003 6.19659C66.5877 6.19659 64.7221 6.79621 63.0942 7.98638C61.4663 9.17656 60.314 10.9482 59.6281 13.274H59.2348V6.73262H49.0834V44.2276H59.5458V23.0134C59.5458 21.4871 59.8933 20.1334 60.5883 18.9614C61.2834 17.7894 62.2345 16.8718 63.4417 16.2176C64.6489 15.5635 66.0207 15.2273 67.5571 15.2273C68.2796 15.2273 69.0753 15.2819 69.9441 15.4C70.8129 15.5181 71.4897 15.6453 71.9835 15.7906V6.56C71.5262 6.45097 70.9958 6.36012 70.3831 6.28744C69.7795 6.22384 69.2125 6.1875 68.6912 6.1875L68.7003 6.19659Z" fill="#161237"/>
<path d="M155.617 9.24893C154.117 8.22229 152.407 7.46821 150.486 6.97761C148.566 6.487 146.554 6.2417 144.45 6.2417C141.432 6.2417 138.789 6.69596 136.503 7.59541C134.217 8.49485 132.351 9.78496 130.915 11.4476C129.47 13.1193 128.51 15.0908 128.016 17.3621L137.701 18.1434C138.058 16.9078 138.799 15.8812 139.914 15.0544C141.03 14.2367 142.53 13.8188 144.414 13.8188C146.197 13.8188 147.578 14.2458 148.557 15.0908C149.535 15.9357 150.02 17.1349 150.02 18.6794V18.8248C150.02 19.6243 149.718 20.2239 149.115 20.6328C148.511 21.0416 147.532 21.3414 146.188 21.5504C144.844 21.7503 143.079 21.9683 140.884 22.1954C139.018 22.3772 137.235 22.6861 135.543 23.1221C133.851 23.5582 132.333 24.2124 131.007 25.0755C129.681 25.9386 128.629 27.0742 127.861 28.4915C127.092 29.9088 126.708 31.6532 126.708 33.7428C126.708 36.214 127.257 38.2764 128.345 39.9299C129.434 41.5834 130.924 42.8281 132.808 43.664C134.692 44.4998 136.841 44.9177 139.247 44.9177C141.112 44.9177 142.759 44.6724 144.185 44.1727C145.612 43.673 146.828 42.9826 147.843 42.1013C148.859 41.2109 149.672 40.1843 150.276 39.0123H150.569V44.2091H160.491V18.9338C160.491 16.7079 160.062 14.7909 159.193 13.1829C158.324 11.5838 157.144 10.2665 155.644 9.23984L155.617 9.24893ZM150.075 30.8265C150.075 32.1438 149.736 33.3249 149.069 34.3697C148.401 35.4145 147.468 36.2413 146.289 36.85C145.109 37.4587 143.746 37.7676 142.21 37.7676C140.673 37.7676 139.283 37.3951 138.241 36.6592C137.198 35.9233 136.677 34.8422 136.677 33.4248C136.677 32.4527 136.933 31.6351 137.436 30.9718C137.939 30.3086 138.652 29.7907 139.576 29.4001C140.49 29.0094 141.57 28.7278 142.795 28.5461C143.371 28.4643 144.011 28.3734 144.716 28.2644C145.42 28.1554 146.124 28.0373 146.828 27.901C147.532 27.7647 148.163 27.6103 148.73 27.4377C149.298 27.265 149.746 27.0742 150.066 26.8653V30.8446L150.075 30.8265Z" fill="#161237"/>
<path d="M126.69 6.19659C126.278 16.0905 127.083 44.2276 111.088 44.2276C106.195 44.2276 102.885 41.6019 100.626 37.668C99.4916 39.6304 98.1015 41.2839 96.373 42.4287C94.6629 43.5825 92.596 44.2276 90.1542 44.2276C74.168 44.2276 74.9728 16.0995 74.5521 6.19659H84.9139C84.9139 6.19659 84.7492 9.26741 84.7492 13.4285C84.7492 22.223 85.49 35.9236 90.145 35.9236C94.8275 35.9145 95.55 22.0686 95.5408 13.2649V13.3013L95.55 6.1875H105.692V11.2117C105.582 19.6882 106.003 35.9145 111.079 35.9145C117.938 35.9145 116.31 6.1875 116.31 6.1875H126.672L126.69 6.19659Z" fill="#161237"/>
</g>
<defs>
<clipPath id="clip0_304_442">
<rect width="167.333" height="44" fill="white" transform="translate(6.10352e-05 0.936035)"/>
</clipPath>
</defs>
</svg>
