<svg width="143" height="115" viewBox="0 0 143 115" fill="none" xmlns="http://www.w3.org/2000/svg">
<path d="M114.241 12.4891C114.974 10.6943 115.398 9.39283 116.012 8.189C118.793 2.74468 124.915 -0.270305 130.82 0.830489C137.002 1.98009 141.581 7.06652 142.07 13.3785C142.173 14.7341 142.13 16.0952 142.13 17.4563C142.141 44.667 141.983 71.8778 142.244 99.0886C142.336 108.529 135.617 114.646 126.681 114.603C88.9696 114.418 51.2587 114.521 13.5478 114.521C10.9729 114.521 8.39795 114.527 5.82305 114.516C0.282113 114.478 0.260384 114.478 0.254951 108.974C0.254951 78.5856 0.254951 48.2026 0.254951 17.8142C0.254951 16.9086 0.254951 15.9976 0.292977 15.092C0.363597 13.4869 1.17844 12.5651 2.82986 12.5217C4.19336 12.4837 5.55686 12.4837 6.92037 12.4837C40.845 12.4837 74.7696 12.4837 108.694 12.4837C110.498 12.4837 112.301 12.4837 114.246 12.4837L114.241 12.4891ZM4.43238 110.46H9.32144C48.2221 110.46 87.1281 110.46 126.029 110.46C126.936 110.46 127.849 110.492 128.75 110.438C133.944 110.102 137.92 106.23 138.273 101.203C138.599 96.5237 135.019 91.9904 130.277 91.0631C125.176 90.0707 120.564 92.7983 118.961 97.8251C118.597 98.9639 118.597 100.238 118.136 101.323C117.913 101.849 116.979 102.38 116.397 102.348C115.821 102.32 114.925 101.675 114.8 101.149C114.529 100.005 114.621 98.7632 114.621 97.5594C114.621 72.1761 114.621 46.7927 114.61 21.4094C114.61 19.9453 114.491 18.4757 114.414 16.7893H4.43238V110.46ZM137.98 90.3744C138.186 89.0242 138.311 88.5795 138.311 88.1349C138.322 63.9662 138.338 39.8029 138.3 15.6343C138.3 14.1539 138.045 12.6084 137.567 11.2094C136.187 7.16412 132.379 4.58837 128.185 4.65887C123.937 4.73478 120.292 7.35392 119.037 11.5077C118.57 13.0639 118.424 14.7667 118.424 16.4043C118.385 39.6674 118.391 62.925 118.407 86.1881C118.407 87.3269 118.565 88.4656 118.69 90.2443C125.208 85.8248 131.456 85.635 137.98 90.369V90.3744Z" fill="#0B0B0B"/>
<path d="M53.9685 30.9802H15.9425V92.7711H53.9685V30.9802Z" stroke="#0B0B0B" stroke-width="3" stroke-miterlimit="10"/>
<path d="M53.9685 30.9802H15.9425V44.6615H53.9685V30.9802Z" stroke="#0B0B0B" stroke-width="2" stroke-miterlimit="10"/>
<path d="M28.616 64.5247H15.9425V77.8914H28.616V64.5247Z" stroke="#0B0B0B" stroke-width="2" stroke-miterlimit="10"/>
<path d="M41.2949 64.5247H28.6214V77.8914H41.2949V64.5247Z" stroke="#0B0B0B" stroke-width="2" stroke-miterlimit="10"/>
<path d="M53.9685 64.5247H41.2949V77.8914H53.9685V64.5247Z" stroke="#0B0B0B" stroke-width="2" stroke-miterlimit="10"/>
<path d="M22.798 82.1807H47.1184H22.798Z" stroke="#0B0B0B" stroke-width="2" stroke-miterlimit="10"/>
<path d="M23.0207 86.5947H47.3411H23.0207Z" stroke="#0B0B0B" stroke-width="2" stroke-miterlimit="10"/>
<path d="M98.5132 30.9802H60.4872V92.7711H98.5132V30.9802Z" stroke="#0B0B0B" stroke-width="3" stroke-miterlimit="10"/>
<path d="M98.5132 30.9802H60.4872V44.6615H98.5132V30.9802Z" stroke="#0B0B0B" stroke-width="2" stroke-miterlimit="10"/>
<path d="M98.5132 44.5369H60.4872V58.2182H98.5132V44.5369Z" stroke="#0B0B0B" stroke-width="2" stroke-miterlimit="10"/>
<path d="M67.3428 68.0818H91.6631H67.3428Z" stroke="#0B0B0B" stroke-width="2" stroke-miterlimit="10"/>
<path d="M67.5655 72.4958H91.8858H67.5655Z" stroke="#0B0B0B" stroke-width="2" stroke-miterlimit="10"/>
<path d="M67.3428 77.8425H91.6631H67.3428Z" stroke="#0B0B0B" stroke-width="2" stroke-miterlimit="10"/>
<path d="M67.5655 82.2566H91.8858H67.5655Z" stroke="#0B0B0B" stroke-width="2" stroke-miterlimit="10"/>
</svg>
