<svg width="86" height="20" viewBox="0 0 86 20" fill="none" xmlns="http://www.w3.org/2000/svg">
<path d="M1 0.5C0.447715 0.5 0 0.947715 0 1.5C0 2.05228 0.447715 2.5 1 2.5V0.5ZM78.5 1.5H79.5V0.5H78.5V1.5ZM77.7929 19.7071C78.1834 20.0976 78.8166 20.0976 79.2071 19.7071L85.5711 13.3431C85.9616 12.9526 85.9616 12.3195 85.5711 11.9289C85.1805 11.5384 84.5474 11.5384 84.1569 11.9289L78.5 17.5858L72.8431 11.9289C72.4526 11.5384 71.8195 11.5384 71.4289 11.9289C71.0384 12.3195 71.0384 12.9526 71.4289 13.3431L77.7929 19.7071ZM1 2.5H78.5V0.5H1V2.5ZM77.5 1.5V19H79.5V1.5H77.5Z" fill="#C79B01"/>
</svg>
