<svg width="88" height="79" viewBox="0 0 88 79" fill="none" xmlns="http://www.w3.org/2000/svg">
<path d="M1 0.5C0.447715 0.5 0 0.947715 0 1.5C0 2.05228 0.447715 2.5 1 2.5V0.5ZM80 1.5H81V0.5H80V1.5ZM79.2929 78.2071C79.6834 78.5976 80.3166 78.5976 80.7071 78.2071L87.0711 71.8431C87.4616 71.4526 87.4616 70.8195 87.0711 70.4289C86.6805 70.0384 86.0474 70.0384 85.6569 70.4289L80 76.0858L74.3431 70.4289C73.9526 70.0384 73.3195 70.0384 72.9289 70.4289C72.5384 70.8195 72.5384 71.4526 72.9289 71.8431L79.2929 78.2071ZM1 2.5H80V0.5H1V2.5ZM79 1.5V77.5H81V1.5H79Z" fill="#C79B01"/>
</svg>
